<?xml version="1.0" encoding="UTF-8"?>
<svg width="334px" height="118px" viewBox="0 0 334 118" version="1.1" xmlns="http://www.w3.org/2000/svg" xmlns:xlink="http://www.w3.org/1999/xlink">
    <!-- Generator: Sketch 45.2 (43514) - http://www.bohemiancoding.com/sketch -->
    <title>Image_5@1x</title>
    <desc>Created with Sketch.</desc>
    <defs>
        <path d="M5,0 L328,0 L328,112 L0,112 L0,5 L-8.8817842e-16,5 C-1.2263553e-15,2.23857625 2.23857625,5.07265313e-16 5,0 Z" id="path-1"></path>
        <filter x="-1.5%" y="-3.6%" width="103.0%" height="108.9%" filterUnits="objectBoundingBox" id="filter-2">
            <feOffset dx="0" dy="1" in="SourceAlpha" result="shadowOffsetOuter1"></feOffset>
            <feGaussianBlur stdDeviation="1.5" in="shadowOffsetOuter1" result="shadowBlurOuter1"></feGaussianBlur>
            <feComposite in="shadowBlurOuter1" in2="SourceAlpha" operator="out" result="shadowBlurOuter1"></feComposite>
            <feColorMatrix values="0 0 0 0 0.941176471   0 0 0 0 0.941176471   0 0 0 0 0.941176471  0 0 0 1 0" type="matrix" in="shadowBlurOuter1"></feColorMatrix>
        </filter>
    </defs>
    <g id="Page-1" stroke="none" stroke-width="1" fill="none" fill-rule="evenodd">
        <g id="Prime_Saving-account_01" transform="translate(-13.000000, -982.000000)">
            <g id="Image_5" transform="translate(16.000000, 984.000000)">
                <g id="Rectangle-5-Copy">
                    <use fill="black" fill-opacity="1" filter="url(#filter-2)" xlink:href="#path-1"></use>
                    <use fill="#FFFFFF" fill-rule="evenodd" xlink:href="#path-1"></use>
                    <path stroke="#D8D8D8" stroke-width="1" d="M0.5,111.5 L327.5,111.5 L327.5,0.5 L5,0.5 C2.51471863,0.5 0.5,2.51471863 0.5,5 L0.5,111.5 Z"></path>
                </g>
                <g id="Group" transform="translate(17.000000, 33.000000)">
                    <polygon id="Shape" fill="#CC1C5D" fill-rule="nonzero" points="0 43.4173442 0.797101449 43.4173442 0.797101449 46.4449864 2.07246377 46.4449864 2.07246377 47.1620596 0 47.1620596"></polygon>
                    <path d="M5.81884058,46.7636856 C5.42028986,47.1620596 4.94202899,47.3214092 4.38405797,47.3214092 C3.9057971,47.3214092 3.50724638,47.1620596 3.10869565,46.8433604 C2.63043478,46.4449864 2.39130435,45.8872629 2.39130435,45.3295393 C2.39130435,44.7718157 2.63043478,44.2937669 2.94927536,43.9750678 C3.34782609,43.5766938 3.82608696,43.4173442 4.38405797,43.4173442 C4.94202899,43.4173442 5.42028986,43.6563686 5.81884058,43.9750678 C6.2173913,44.3734417 6.37681159,44.8514905 6.37681159,45.3295393 C6.37681159,45.8872629 6.2173913,46.3653117 5.81884058,46.7636856 M5.57971014,45.3295393 C5.57971014,44.6124661 5.10144928,44.0547425 4.38405797,44.0547425 C3.66666667,44.0547425 3.1884058,44.6124661 3.1884058,45.3295393 C3.1884058,46.0466125 3.66666667,46.604336 4.38405797,46.604336 C5.10144928,46.604336 5.57971014,46.0466125 5.57971014,45.3295393" id="Shape" fill="#CC1C5D" fill-rule="nonzero"></path>
                    <path d="M7.65217391,45.4888889 L6.37681159,43.4173442 L7.33333333,43.4173442 L7.89130435,44.4531165 C7.97101449,44.5327913 7.97101449,44.6921409 8.05072464,44.9311653 C8.13043478,44.7718157 8.13043478,44.6124661 8.21014493,44.4531165 L8.76811594,43.4173442 L9.72463768,43.4173442 L8.44927536,45.4888889 L8.44927536,47.1620596 L7.65217391,47.1620596 L7.65217391,45.4888889 L7.65217391,45.4888889 Z" id="Shape" fill="#CC1C5D" fill-rule="nonzero"></path>
                    <path d="M10.9202899,43.4173442 L11.8768116,43.4173442 L13.3115942,47.1620596 L12.4347826,47.1620596 L12.115942,46.3653117 L10.6811594,46.3653117 L10.442029,47.1620596 L9.56521739,47.1620596 L10.9202899,43.4173442 Z M11.3985507,44.5327913 C11.3985507,44.4531165 11.3188406,44.2937669 11.3188406,44.0547425 C11.2391304,44.3734417 11.2391304,44.5327913 11.2391304,44.6124661 L10.8405797,45.8075881 L11.8768116,45.8075881 L11.3985507,44.5327913 Z" id="Shape" fill="#CC1C5D" fill-rule="nonzero"></path>
                    <polygon id="Shape" fill="#CC1C5D" fill-rule="nonzero" points="13.5507246 43.4173442 14.3478261 43.4173442 14.3478261 46.4449864 15.6231884 46.4449864 15.6231884 47.1620596 13.5507246 47.1620596"></polygon>
                    <polygon id="Shape" fill="#CC1C5D" fill-rule="nonzero" points="16.8985507 47.1620596 16.1014493 47.1620596 16.1014493 44.0547425 15.1449275 44.0547425 15.1449275 43.4173442 17.7753623 43.4173442 17.7753623 44.0547425 16.8985507 44.0547425"></polygon>
                    <path d="M19.6086957,45.4888889 L18.3333333,43.4173442 L19.2898551,43.4173442 L19.8478261,44.4531165 C19.9275362,44.5327913 19.9275362,44.6921409 20.0072464,44.9311653 C20.0869565,44.7718157 20.0869565,44.6124661 20.1666667,44.4531165 L20.7246377,43.4173442 L21.6811594,43.4173442 L20.4057971,45.4888889 L20.4057971,47.1620596 L19.6086957,47.1620596 L19.6086957,45.4888889 L19.6086957,45.4888889 Z" id="Shape" fill="#CC1C5D" fill-rule="nonzero"></path>
                    <path d="M24.8695652,47.1620596 L23.9130435,45.4092141 L23.9130435,47.1620596 L23.115942,47.1620596 L23.115942,43.4173442 L24.2318841,43.4173442 C25.1086957,43.4173442 25.5869565,43.7360434 25.5869565,44.4531165 C25.5869565,45.0108401 25.2681159,45.4092141 24.7898551,45.4092141 L25.826087,47.0823848 L24.8695652,47.0823848 L24.8695652,47.1620596 Z M23.9927536,45.0108401 C24.4710145,45.0108401 24.7898551,44.9311653 24.7898551,44.5327913 C24.7898551,44.1344173 24.4710145,44.0547425 23.9927536,44.0547425 L23.9130435,44.0547425 L23.9130435,45.0108401 L23.9927536,45.0108401 L23.9927536,45.0108401 Z" id="Shape" fill="#CC1C5D" fill-rule="nonzero"></path>
                    <polygon id="Shape" fill="#CC1C5D" fill-rule="nonzero" points="26.3043478 43.4173442 28.4565217 43.4173442 28.4565217 44.0547425 27.1014493 44.0547425 27.1014493 44.8514905 28.4565217 44.8514905 28.4565217 45.5685637 27.1014493 45.5685637 27.1014493 46.4449864 28.4565217 46.4449864 28.4565217 47.1620596 26.3043478 47.1620596"></polygon>
                    <path d="M32.9202899,45.4888889 C33,45.8075881 33.0797101,46.1262873 33.0797101,46.4449864 C33.0797101,46.1262873 33.1594203,45.8075881 33.1594203,45.4888889 L33.6376812,43.4173442 L34.4347826,43.4173442 L33.4782609,47.1620596 L32.6811594,47.1620596 L32.0434783,44.7718157 C31.9637681,44.6124661 31.9637681,44.3734417 31.9637681,44.1344173 C31.9637681,44.3734417 31.884058,44.6124661 31.884058,44.7718157 L31.2463768,47.1620596 L30.4492754,47.1620596 L29.4927536,43.4173442 L30.2898551,43.4173442 L30.7681159,45.4888889 C30.8478261,45.7279133 30.8478261,46.0466125 30.8478261,46.3653117 C30.9275362,46.0466125 31.0072464,45.7279133 31.0072464,45.4888889 L31.5652174,43.4173442 L32.3623188,43.4173442 L32.9202899,45.4888889 Z" id="Shape" fill="#CC1C5D" fill-rule="nonzero"></path>
                    <path d="M35.7101449,43.4173442 L36.5869565,43.4173442 L38.0217391,47.1620596 L37.1449275,47.1620596 L36.826087,46.3653117 L35.3913043,46.3653117 L35.1521739,47.1620596 L34.2753623,47.1620596 L35.7101449,43.4173442 Z M36.2681159,44.5327913 C36.2681159,44.4531165 36.1884058,44.2937669 36.1884058,44.0547425 C36.1086957,44.3734417 36.1086957,44.5327913 36.1086957,44.6124661 L35.7101449,45.8075881 L36.7463768,45.8075881 L36.2681159,44.5327913 Z" id="Shape" fill="#CC1C5D" fill-rule="nonzero"></path>
                    <path d="M40.0144928,47.1620596 L39.057971,45.4092141 L39.057971,47.1620596 L38.2608696,47.1620596 L38.2608696,43.4173442 L39.3768116,43.4173442 C40.2536232,43.4173442 40.7318841,43.7360434 40.7318841,44.4531165 C40.7318841,45.0108401 40.4130435,45.4092141 39.9347826,45.4092141 L40.9710145,47.0823848 L40.0144928,47.0823848 L40.0144928,47.1620596 Z M39.1376812,45.0108401 C39.615942,45.0108401 39.9347826,44.9311653 39.9347826,44.5327913 C39.9347826,44.1344173 39.615942,44.0547425 39.1376812,44.0547425 L38.9782609,44.0547425 L38.9782609,45.0108401 L39.1376812,45.0108401 L39.1376812,45.0108401 Z" id="Shape" fill="#CC1C5D" fill-rule="nonzero"></path>
                    <path d="M41.4492754,43.4173442 L42.4855072,43.4173442 C43.1231884,43.4173442 43.6014493,43.497019 44.0797101,43.8157182 C44.557971,44.1344173 44.7971014,44.6921409 44.7971014,45.3295393 C44.7971014,45.9669377 44.557971,46.5246612 44.0797101,46.8433604 C43.6014493,47.1620596 43.1231884,47.1620596 42.5652174,47.1620596 L42.2463768,47.1620596 L41.4492754,47.1620596 L41.4492754,43.4173442 Z M42.6449275,46.4449864 C43.442029,46.4449864 43.8405797,46.1262873 43.8405797,45.2498645 C43.8405797,44.3734417 43.442029,44.0547425 42.6449275,44.0547425 L42.1666667,44.0547425 L42.1666667,46.4449864 L42.6449275,46.4449864 Z" id="Shape" fill="#CC1C5D" fill-rule="nonzero"></path>
                    <path d="M45.8333333,46.2059621 C45.9130435,46.5246612 46.2318841,46.6840108 46.5507246,46.6840108 C46.9492754,46.6840108 47.1884058,46.5246612 47.1884058,46.2059621 C47.1884058,45.8872629 46.8695652,45.8075881 46.3913043,45.5685637 C45.8333333,45.2498645 45.5144928,45.0108401 45.5144928,44.4531165 C45.5144928,43.895393 45.9927536,43.4173442 46.8695652,43.4173442 C47.3478261,43.4173442 47.6666667,43.5766938 47.9057971,43.895393 L47.4275362,44.3734417 C47.3478261,44.1344173 47.1086957,44.0547425 46.8695652,44.0547425 C46.5507246,44.0547425 46.3115942,44.2140921 46.3115942,44.4531165 C46.3115942,44.7718157 46.6304348,44.8514905 47.0289855,45.0905149 C47.6666667,45.4092141 47.9855072,45.7279133 47.9855072,46.2059621 C47.9855072,46.8433604 47.5072464,47.3214092 46.6304348,47.3214092 C46.0724638,47.3214092 45.5942029,47.0823848 45.4347826,46.7636856 L45.8333333,46.2059621 Z" id="Shape" fill="#CC1C5D" fill-rule="nonzero"></path>
                    <path d="M30.2898551,35.2108401 L30.2898551,36.804336 L34.5144928,36.804336 C33.8768116,38.2384824 32.6811594,38.9555556 30.7681159,38.9555556 C29.4927536,38.9555556 28.4565217,38.6368564 27.7391304,37.999458 C27.0217391,37.3620596 26.6231884,36.5653117 26.6231884,35.6092141 C26.6231884,34.5734417 27.0217391,33.7766938 27.9782609,33.0596206 C28.7753623,32.501897 29.7318841,32.1831978 30.8478261,32.1831978 C32.2826087,32.1831978 33.4782609,32.6612466 34.4347826,33.697019 L34.3550725,33.8563686 L36.0289855,33.0596206 L35.9492754,32.900271 C34.5942029,31.3864499 32.9202899,30.6693767 30.8478261,30.6693767 C29.173913,30.6693767 27.7391304,31.0677507 26.6231884,31.9441734 C25.3478261,32.900271 24.7101449,34.1750678 24.7101449,35.6888889 C24.7101449,37.20271 25.3478261,38.4775068 26.6231884,39.4336043 C27.7391304,40.3100271 29.0942029,40.7084011 30.7681159,40.7084011 C32.6014493,40.7084011 34.0362319,40.2303523 35.1521739,39.2742547 C36.2681159,38.3181572 36.826087,37.0433604 36.826087,35.5295393 L36.826087,35.2905149 L30.2898551,35.2905149 L30.2898551,35.2108401 Z" id="Shape" fill="#CC1C5D" fill-rule="nonzero"></path>
                    <polygon id="Shape" fill="#CC1C5D" fill-rule="nonzero" points="39.2173913 39.2742547 39.2173913 36.804336 44.6376812 36.804336 44.6376812 35.2108401 39.2173913 35.2108401 39.2173913 33.0596206 47.0289855 33.0596206 47.0289855 31.4661247 37.4637681 31.4661247 37.4637681 40.9474255 47.3478261 40.9474255 47.3478261 39.2742547"></polygon>
                    <path d="M9.91062802,36.9380759 L9.91062802,37.0177507 C9.43236715,38.2925474 8.55555556,39.248645 7.20048309,39.8063686 C6.16425121,40.2844173 5.12801932,40.3640921 4.25120773,40.2047425 C3.37439614,39.9657182 2.65700483,39.4876694 2.25845411,38.7705962 L11.5845411,34.7071816 L11.5048309,34.4681572 C10.8671498,33.0340108 9.91062802,32.1575881 8.47584541,31.6795393 C7.12077295,31.2811653 5.60628019,31.4405149 3.93236715,32.1575881 C2.4178744,32.7949864 1.30193237,33.751084 0.664251208,34.946206 C-0.132850242,36.3006775 -0.212560386,37.7348238 0.425120773,39.1689702 C1.06280193,40.5234417 2.09903382,41.4795393 3.69323671,41.7982385 C4.17149758,41.8779133 4.57004831,41.9575881 5.04830918,41.9575881 C6.00483092,41.9575881 7.0410628,41.7185637 8.07729469,41.2405149 C9.99033816,40.4437669 11.1859903,39.0096206 11.8236715,37.0974255 L11.9033816,36.9380759 L9.91062802,36.9380759 Z M7.43961353,34.7071816 L7.43961353,34.7071816 L1.70048309,37.1771003 C1.70048309,36.6990515 1.78019324,36.2210027 2.01932367,35.7429539 C2.49758454,34.8665312 3.29468599,34.149458 4.41062802,33.6714092 C5.12801932,33.35271 5.84541063,33.1933604 6.48309179,33.1933604 C7.35990338,33.1933604 8.07729469,33.5120596 8.79468599,34.0697832 L7.43961353,34.7071816 Z" id="Shape" fill="#CC1C5D" fill-rule="nonzero"></path>
                    <path d="M22.6376812,32.7409214 C21.6811594,31.8644986 20.4057971,31.4661247 18.7318841,31.4661247 L12.7536232,31.4661247 L12.7536232,40.9474255 L18.9710145,40.9474255 C20.326087,40.9474255 21.5217391,40.5490515 22.4782609,39.6726287 C23.5144928,38.796206 23.9927536,37.6807588 23.9927536,36.3262873 C24.0724638,34.8124661 23.5942029,33.6173442 22.6376812,32.7409214 M19.2101449,39.2742547 L14.5869565,39.2742547 L14.5869565,33.0596206 L18.8913043,33.0596206 C19.8478261,33.0596206 20.6449275,33.3783198 21.2826087,33.9360434 C21.9202899,34.4937669 22.1594203,35.2905149 22.1594203,36.2466125 C22.1594203,37.1230352 21.8405797,37.8401084 21.2826087,38.397832 C20.8043478,39.0352304 20.0869565,39.2742547 19.2101449,39.2742547" id="Shape" fill="#CC1C5D" fill-rule="nonzero"></path>
                    <path d="M13.9027184,13.7034301 C19.3789782,11.3017242 24.6889381,8.97580853 29.9939089,6.64820858 C29.9473449,6.46968066 29.9107589,6.29452118 29.8675209,6.11430903 C26.8175784,3.80691979 23.5697389,4.28860835 20.2720094,5.64272583 C16.5468888,7.17031856 13.7147993,10.5791914 13.9027184,13.7034301 Z M21.2531795,25.9999621 C13.8428504,26.0168044 8.3433085,20.4167538 9.06338762,13.3312162 C9.56395069,8.41664559 12.4409411,5.01114118 16.6050938,2.65154095 C20.2088154,0.606890926 24.048683,-0.472697761 28.1962056,0.199308302 C32.3254353,0.878051267 35.1275907,3.39428449 36.951902,7.10631798 C37.3044581,7.82042969 36.966869,8.3256974 36.2451269,8.64233184 C31.7250922,10.6196128 27.2083835,12.6187888 22.6983268,14.6112278 C20.5015034,15.5813418 18.3213101,16.5969299 16.1078567,17.5266225 C15.0302326,17.977995 15.0767966,18.4731574 15.8284727,19.2125325 C18.2165411,21.5687642 21.1084985,22.0454001 24.170082,21.2554983 C28.0166016,20.268542 31.1779651,18.2339973 32.8293244,14.3468044 C33.1536094,13.5872186 33.6192495,13.1931097 34.5289106,13.3901641 C35.2306967,13.5434287 35.9823729,13.4272171 36.709104,13.5046915 C37.6220911,13.605745 37.9580172,14.0419595 37.5904941,15.0238631 C34.8365657,22.3317185 27.8802356,25.782697 21.2531795,25.9999621 Z" id="Page-1" stroke="#CC1C5D"></path>
                </g>
                <text id="Earn-eDGE-Loyalty-Re" font-family="Lato-Regular, Lato" font-size="18" font-weight="normal" line-spacing="21">
                    <tspan x="161.718" y="53" fill="#4A4A4A">Earn eDGE Loyalty </tspan>
                    <tspan x="188.682" y="74" fill="#9E9E9E">Rewards points  </tspan>
                </text>
            </g>
        </g>
    </g>
</svg>