<?xml version="1.0" encoding="UTF-8"?>
<svg width="334px" height="118px" viewBox="0 0 334 118" version="1.1" xmlns="http://www.w3.org/2000/svg" xmlns:xlink="http://www.w3.org/1999/xlink">
    <!-- Generator: Sketch 45.2 (43514) - http://www.bohemiancoding.com/sketch -->
    <title>Image_1@3x</title>
    <desc>Created with Sketch.</desc>
    <defs>
        <rect id="path-1" x="0" y="0" width="328" height="112" rx="5"></rect>
        <filter x="-1.5%" y="-3.6%" width="103.0%" height="108.9%" filterUnits="objectBoundingBox" id="filter-2">
            <feOffset dx="0" dy="1" in="SourceAlpha" result="shadowOffsetOuter1"></feOffset>
            <feGaussianBlur stdDeviation="1.5" in="shadowOffsetOuter1" result="shadowBlurOuter1"></feGaussianBlur>
            <feComposite in="shadowBlurOuter1" in2="SourceAlpha" operator="out" result="shadowBlurOuter1"></feComposite>
            <feColorMatrix values="0 0 0 0 0.941176471   0 0 0 0 0.941176471   0 0 0 0 0.941176471  0 0 0 1 0" type="matrix" in="shadowBlurOuter1"></feColorMatrix>
        </filter>
    </defs>
    <g id="Page-1" stroke="none" stroke-width="1" fill="none" fill-rule="evenodd">
        <g id="Prime_Saving-account_01" transform="translate(-13.000000, -214.000000)">
            <g id="Image_1" transform="translate(16.000000, 216.000000)">
                <g id="Rectangle-5">
                    <use fill="black" fill-opacity="1" filter="url(#filter-2)" xlink:href="#path-1"></use>
                    <use fill="#FFFFFF" fill-rule="evenodd" xlink:href="#path-1"></use>
                    <rect stroke="#D8D8D8" stroke-width="1" x="0.5" y="0.5" width="327" height="111" rx="5"></rect>
                </g>
                <text id="10%-discount-on-Lock" font-family="Lato-Regular, Lato" font-size="18" font-weight="normal" line-spacing="21">
                    <tspan x="205.366" y="53" fill="#4A4A4A">10% discount </tspan>
                    <tspan x="193" y="74" fill="#9E9E9E">on Locker Rent</tspan>
                </text>
                <g id="Locker" transform="translate(16.000000, 32.000000)" stroke="#CC1C5D" stroke-width="2" stroke-linecap="round">
                    <path d="M42.2645455,44.3056364 L2.46272727,44.3056364 C1.22018182,44.3056364 0.212727273,43.2981818 0.212727273,42.0556364 L0.212727273,2.25381818 C0.212727273,1.01127273 1.22018182,0.00381818182 2.46272727,0.00381818182 L42.2645455,0.00381818182 C43.5070909,0.00381818182 44.5145455,1.01127273 44.5145455,2.25381818 L44.5145455,42.0556364 C44.5145455,43.2987273 43.5070909,44.3056364 42.2645455,44.3056364 Z" id="Shape"></path>
                    <path d="M29.4338182,14.8352727 C28.8272727,14.2494545 28.1481818,13.7378182 27.4112727,13.3161818" id="Shape"></path>
                    <path d="M29.7665455,29.1349091 C30.3190909,28.5490909 30.8029091,27.8978182 31.2049091,27.1941818" id="Shape"></path>
                    <path d="M15.0752727,29.2538182 C15.7336364,29.9296364 16.4852727,30.5138182 17.3089091,30.9861818" id="Shape"></path>
                    <path d="M15.2001818,14.9269091 C14.5494545,15.5721818 13.9849091,16.3047273 13.5267273,17.1054545" id="Shape"></path>
                    <path d="M32.5390909,22.1536364 C32.5390909,20.3165455 32.0498182,18.5950909 31.1983636,17.1076364 L33.3883636,14.9176364 C33.7952727,14.5107273 33.7952727,13.8501818 33.3883636,13.4432727 L31.074,11.1289091 C30.6670909,10.722 30.0065455,10.722 29.5996364,11.1289091 L27.4096364,13.3189091 C25.9221818,12.4674545 24.2007273,11.9781818 22.3636364,11.9781818 C20.5265455,11.9781818 18.8050909,12.4674545 17.3176364,13.3189091 L15.1276364,11.1289091 C14.7207273,10.722 14.0601818,10.722 13.6532727,11.1289091 L11.3389091,13.4432727 C10.932,13.8501818 10.932,14.5107273 11.3389091,14.9176364 L13.5289091,17.1076364 C12.6774545,18.5950909 12.1881818,20.3165455 12.1881818,22.1536364 C12.1881818,23.9874545 12.6758182,25.7061818 13.5245455,27.192 L11.3389091,29.3776364 C10.932,29.7845455 10.932,30.4450909 11.3389091,30.852 L13.6532727,33.1663636 C14.0601818,33.5732727 14.7207273,33.5732727 15.1276364,33.1663636 L17.31,30.984 C18.7990909,31.8381818 20.5238182,32.3290909 22.3636364,32.3290909 C24.2034545,32.3290909 25.9281818,31.8381818 27.4172727,30.984 L29.5996364,33.1663636 C30.0065455,33.5732727 30.6670909,33.5732727 31.074,33.1663636 L33.3883636,30.852 C33.7952727,30.4450909 33.7952727,29.7845455 33.3883636,29.3776364 L31.2027273,27.192 C32.0514545,25.7061818 32.5390909,23.9874545 32.5390909,22.1536364 Z" id="Shape"></path>
                    <rect id="Rectangle-path" x="5.03072727" y="4.82181818" width="34.6663636" height="34.6663636"></rect>
                    <g id="Group" transform="translate(18.000000, 18.000000)">
                        <path d="M2.56309091,2.94927273 L0.882,2.94927273 C0.549272727,2.94927273 0.279818182,2.67981818 0.279818182,2.34709091 L0.279818182,0.666 C0.279818182,0.333272727 0.549272727,0.0638181818 0.882,0.0638181818 L2.56309091,0.0638181818 C2.89581818,0.0638181818 3.16527273,0.333272727 3.16527273,0.666 L3.16527273,2.34709091 C3.16527273,2.67981818 2.89581818,2.94927273 2.56309091,2.94927273 Z" id="Shape"></path>
                        <path d="M7.84527273,2.94927273 L6.16418182,2.94927273 C5.83145455,2.94927273 5.562,2.67981818 5.562,2.34709091 L5.562,0.666 C5.562,0.333272727 5.83145455,0.0638181818 6.16418182,0.0638181818 L7.84527273,0.0638181818 C8.178,0.0638181818 8.44745455,0.333272727 8.44745455,0.666 L8.44745455,2.34709091 C8.44745455,2.67981818 8.17745455,2.94927273 7.84527273,2.94927273 Z" id="Shape"></path>
                        <path d="M0.279818182,7.62872727 L0.279818182,5.94763636 C0.279818182,5.61490909 0.549272727,5.34545455 0.882,5.34545455 L2.56309091,5.34545455 C2.89581818,5.34545455 3.16527273,5.61490909 3.16527273,5.94763636 L3.16527273,7.62872727 C3.16527273,7.96145455 2.89581818,8.23090909 2.56309091,8.23090909 L0.882,8.23090909 C0.549818182,8.23090909 0.279818182,7.96145455 0.279818182,7.62872727 Z" id="Shape"></path>
                        <path d="M5.562,7.62872727 L5.562,5.94763636 C5.562,5.61490909 5.83145455,5.34545455 6.16418182,5.34545455 L7.84527273,5.34545455 C8.178,5.34545455 8.44745455,5.61490909 8.44745455,5.94763636 L8.44745455,7.62872727 C8.44745455,7.96145455 8.178,8.23090909 7.84527273,8.23090909 L6.16418182,8.23090909 C5.83145455,8.23090909 5.562,7.96145455 5.562,7.62872727 Z" id="Shape"></path>
                    </g>
                    <polyline id="Shape" points="13.1694545 46.3309091 13.1694545 47.9961818 5.03072727 47.9961818 5.03072727 46.3309091"></polyline>
                    <polyline id="Shape" points="39.6970909 46.3309091 39.6970909 47.9961818 31.5578182 47.9961818 31.5578182 46.3309091"></polyline>
                </g>
            </g>
        </g>
    </g>
</svg>