<?xml version="1.0" encoding="UTF-8"?>
<svg width="334px" height="118px" viewBox="0 0 334 118" version="1.1" xmlns="http://www.w3.org/2000/svg" xmlns:xlink="http://www.w3.org/1999/xlink">
    <!-- Generator: Sketch 45.2 (43514) - http://www.bohemiancoding.com/sketch -->
    <title>image_3@1x</title>
    <desc>Created with Sketch.</desc>
    <defs>
        <rect id="path-1" x="0" y="0" width="328" height="112" rx="5"></rect>
        <filter x="-1.5%" y="-3.6%" width="103.0%" height="108.9%" filterUnits="objectBoundingBox" id="filter-2">
            <feOffset dx="0" dy="1" in="SourceAlpha" result="shadowOffsetOuter1"></feOffset>
            <feGaussianBlur stdDeviation="1.5" in="shadowOffsetOuter1" result="shadowBlurOuter1"></feGaussianBlur>
            <feComposite in="shadowBlurOuter1" in2="SourceAlpha" operator="out" result="shadowBlurOuter1"></feComposite>
            <feColorMatrix values="0 0 0 0 0.941176471   0 0 0 0 0.941176471   0 0 0 0 0.941176471  0 0 0 1 0" type="matrix" in="shadowBlurOuter1"></feColorMatrix>
        </filter>
    </defs>
    <g id="Page-1" stroke="none" stroke-width="1" fill="none" fill-rule="evenodd">
        <g id="Prime_Saving-account_01" transform="translate(-13.000000, -470.000000)">
            <g id="image_3" transform="translate(16.000000, 472.000000)">
                <g id="Rectangle-5">
                    <use fill="black" fill-opacity="1" filter="url(#filter-2)" xlink:href="#path-1"></use>
                    <use fill="#FFFFFF" fill-rule="evenodd" xlink:href="#path-1"></use>
                    <rect stroke="#D8D8D8" stroke-width="1" x="0.5" y="0.5" width="327" height="111" rx="5"></rect>
                </g>
                <text id="Unlimited-free-trans" font-family="Lato-Regular, Lato" font-size="18" font-weight="normal" line-spacing="21">
                    <tspan x="196.692" y="43" fill="#4A4A4A">Unlimited free </tspan>
                    <tspan x="212.712" y="64" fill="#4A4A4A">transactions </tspan>
                    <tspan x="243.762" y="85" fill="#9E9E9E">at ATMs </tspan>
                </text>
                <g id="Group" transform="translate(16.000000, 36.000000)" fill-rule="nonzero" fill="#CC1C5D">
                    <rect id="Rectangle-path" x="16.744186" y="5.6372093" width="1.11627907" height="5.58139535"></rect>
                    <path d="M19.8697674,27.0697674 C19.3674419,27.0697674 18.9209302,27.1813953 18.4744186,27.4046512 C18.027907,27.1813953 17.5255814,27.0697674 17.0790698,27.0697674 C15.2372093,27.0697674 13.7302326,28.5767442 13.7302326,30.4186047 C13.7302326,32.2604651 15.2372093,33.7674419 17.0790698,33.7674419 C17.5813953,33.7674419 18.027907,33.655814 18.4744186,33.4325581 C18.9209302,33.655814 19.3674419,33.7674419 19.8697674,33.7674419 C21.7116279,33.7674419 23.2186047,32.2604651 23.2186047,30.4186047 C23.2186047,28.5767442 21.7116279,27.0697674 19.8697674,27.0697674 Z M14.7906977,30.4186047 C14.7906977,29.1906977 15.7953488,28.1860465 17.0232558,28.1860465 C17.4139535,28.1860465 17.8046512,28.2976744 18.1395349,28.5209302 L18.1395349,28.5209302 C18.8651163,28.9116279 19.255814,29.6372093 19.255814,30.4744186 C19.255814,31.255814 18.8093023,31.9813953 18.1395349,32.427907 C17.8046512,32.6511628 17.4139535,32.7627907 17.0232558,32.7627907 C15.7953488,32.6511628 14.7906977,31.6465116 14.7906977,30.4186047 Z M19.8697674,32.6511628 C19.7581395,32.6511628 19.6465116,32.6511628 19.5348837,32.6511628 C20.0930233,32.0372093 20.427907,31.255814 20.427907,30.4186047 C20.427907,29.5813953 20.0930233,28.8 19.5348837,28.1860465 C19.6465116,28.1860465 19.7581395,28.1860465 19.8697674,28.1860465 C21.0976744,28.1860465 22.1023256,29.1906977 22.1023256,30.4186047 C22.1023256,31.6465116 21.0976744,32.6511628 19.8697674,32.6511628 Z" id="Shape"></path>
                    <rect id="Rectangle-path" x="25.2837209" y="27.0697674" width="11.3302326" height="1.11627907"></rect>
                    <rect id="Rectangle-path" x="25.2837209" y="29.8604651" width="11.3302326" height="1.11627907"></rect>
                    <rect id="Rectangle-path" x="25.2837209" y="32.6511628" width="11.3302326" height="1.11627907"></rect>
                    <path d="M44.4837209,13.0046512 L20.0930233,13.0046512 L20.0930233,0.0558139535 L0.502325581,0.0558139535 L0.502325581,39.4046512 L20.0930233,39.4046512 L20.0930233,36.4465116 L44.427907,36.4465116 C46.2697674,36.4465116 47.7767442,34.9395349 47.7767442,33.0976744 L47.7767442,16.3534884 C47.8325581,14.5116279 46.3255814,13.0046512 44.4837209,13.0046512 Z M46.6604651,16.2418605 L11.944186,16.2418605 C12,15.0697674 13.0046512,14.1767442 14.1767442,14.1767442 L44.4837209,14.1767442 C45.655814,14.1209302 46.6046512,15.0697674 46.6604651,16.2418605 Z M4.46511628,12.6697674 L4.46511628,6.75348837 L13.3953488,6.75348837 L13.3953488,12.7255814 L4.46511628,12.7255814 L4.46511628,12.6697674 Z M18.9767442,38.344186 L1.61860465,38.344186 L1.61860465,1.17209302 L18.9767442,1.17209302 L18.9767442,13.0046512 L14.5116279,13.0046512 L14.5116279,5.6372093 L3.34883721,5.6372093 L3.34883721,13.8418605 L12,13.8418605 C11.3302326,14.4 10.827907,15.2930233 10.827907,16.2418605 L3.34883721,16.2418605 L3.34883721,20.1488372 L10.772093,20.1488372 L10.772093,33.0976744 C10.772093,34.9395349 12.2790698,36.4465116 14.1209302,36.4465116 L18.9767442,36.4465116 L18.9767442,38.344186 Z M10.772093,17.3581395 L10.772093,19.0325581 L4.46511628,19.0325581 L4.46511628,17.3581395 L10.772093,17.3581395 Z M46.7162791,33.0976744 C46.7162791,34.3255814 45.7116279,35.3302326 44.4837209,35.3302326 L14.1209302,35.3302326 C12.8930233,35.3302326 11.8883721,34.3255814 11.8883721,33.0976744 L11.8883721,22.827907 L46.6604651,22.827907 L46.6604651,33.0976744 L46.7162791,33.0976744 Z M46.7162791,21.7116279 L11.8883721,21.7116279 L11.8883721,20.0930233 L11.8883721,17.3023256 L46.6604651,17.3023256 L46.6604651,21.7116279 L46.7162791,21.7116279 Z" id="Shape"></path>
                </g>
            </g>
        </g>
    </g>
</svg>