<?xml version="1.0" encoding="UTF-8"?>
<svg width="1078px" height="274px" viewBox="0 0 1078 274" version="1.1" xmlns="http://www.w3.org/2000/svg" xmlns:xlink="http://www.w3.org/1999/xlink">
    <!-- Generator: Sketch 45.2 (43514) - http://www.bohemiancoding.com/sketch -->
    <title>Shape</title>
    <desc>Created with Sketch.</desc>
    <defs></defs>
    <g id="Page-1" stroke="none" stroke-width="1" fill="none" fill-rule="evenodd">
        <g id="Axis_logo" fill="#FFFFFF">
            <path d="M315.5,273.3 L217.3,273.3 L157.8,169.5 L255.9,169.5 L315.5,273.3 L315.5,273.3 Z M1011.3,113.6 L1054.8,76.5 L1077.3,76.5 L1026.8,118.6 L1077.6,169.5 L1055,169.5 L1014.9,128.1 L1011.4,131 L1011.4,169.5 L994.5,169.5 L994.5,76.5 L1011.4,76.5 L1011.4,113.6 L1011.3,113.6 Z M875.3,169.5 L875.3,70 L956.6,141.1 L956.6,76.4 L973.4,76.4 L973.4,175.1 L892,104.2 L892,169.4 L875.3,169.4 L875.3,169.5 Z M827.3,133.8 L810.7,102.1 L793.3,133.8 L827.3,133.8 L827.3,133.8 Z M834.1,147 L786.4,147 L774,169.5 L755.8,169.5 L811,70.5 L864.4,169.5 L845.9,169.5 L834.1,147 L834.1,147 Z M705.4,156.2 L715.8,156.2 C723.5,156.2 729.1,155 732.6,152.5 C736.3,149.8 738.2,146.4 738.2,142.3 C738.2,138.3 736.3,134.9 732.7,132.1 C729.2,129.5 722.9,128.1 713.8,128.1 L705.3,128.1 L705.3,156.2 L705.4,156.2 Z M705.4,116.4 L710.7,116.4 C716.9,116.4 721.6,115.3 724.5,113 C727.4,110.7 728.9,107.3 728.9,102.8 C728.9,98.4 727.4,95 724.4,92.9 C721.4,90.5 717.1,89.4 711.4,89.4 L705.4,89.4 L705.4,116.4 L705.4,116.4 Z M688.6,169.5 L688.6,76.5 L705.4,76.5 C712.9,76.5 718.8,76.9 723.3,77.9 C727.8,78.8 731.5,80.5 734.6,82.8 C737.7,85.3 740.2,88.2 742,91.7 C743.9,95.2 744.9,98.9 744.9,102.5 C744.9,109.1 741.8,114.8 735.7,119.4 C741.7,121.1 746.3,124.1 749.7,128.3 C753.2,132.4 755,137.2 755,142.9 C755,150.1 751.9,156.2 745.7,161.3 C742,164.4 737.8,166.6 733.2,167.7 C728.1,168.9 721.7,169.5 714.1,169.5 L688.6,169.5 L688.6,169.5 Z M619.8,90.2 L606.1,97 C603.5,93.3 601.1,90.9 598.7,89.8 C596.3,88.5 593.2,87.9 589.4,87.9 C584.7,87.9 580.9,89 577.8,91.3 C574.7,93.4 573.2,96.1 573.2,99.5 C573.2,104 577.3,107.7 585.3,110.4 L596.4,114.2 C605.5,117.2 612.1,121 616.3,125.3 C620.6,129.7 622.5,135.1 622.5,141.5 C622.5,150 619.1,157.2 612.2,162.7 C605.4,168.3 596.8,171.1 586.5,171.1 C576.8,171.1 568.8,168.7 562.5,163.9 C556.3,159 552.5,152.4 550.9,143.7 L567.9,140.6 C568.7,146.1 570,149.8 572,151.9 C575.4,155.9 580.6,157.9 587.2,157.9 C592.5,157.9 596.8,156.5 600.2,153.5 C603.7,150.6 605.4,146.8 605.4,142.4 C605.4,140.6 605.1,138.9 604.4,137.5 C603.9,135.9 603,134.6 601.7,133.3 C600.5,132.1 598.7,130.8 596.7,129.7 C594.7,128.6 592.3,127.6 589.5,126.6 L578.7,122.8 C563.3,117.4 555.8,109.6 555.8,99.2 C555.8,92.2 559,86.5 565.4,81.8 C571.8,77.1 579.7,74.7 589.3,74.7 C602.4,74.6 612.5,79.8 619.8,90.2 L619.8,90.2 Z M535.7,169.5 L518.9,169.5 L518.9,76.5 L535.7,76.5 L535.7,169.5 L535.7,169.5 Z M450.7,120.9 L420,76.5 L439.2,76.5 L460.5,108 L482.8,76.5 L502.2,76.5 L470.1,120.9 L503.8,169.5 L484.9,169.5 L460.2,133.8 L434.7,169.5 L415.7,169.5 L450.7,120.9 L450.7,120.9 Z M376.4,133.8 L359.9,102.1 L342.6,133.8 L376.4,133.8 L376.4,133.8 Z M383.2,147 L395,169.5 L413.4,169.5 L360.1,70.5 L304.9,169.5 L323,169.5 L335.4,147 L383.2,147 L383.2,147 Z M157.4,0.1 L0,273.3 L97.9,273.3 L206.6,84.6 L157.4,0.1 Z" id="Shape"></path>
        </g>
    </g>
</svg>