<?xml version="1.0" encoding="UTF-8"?>
<svg width="334px" height="118px" viewBox="0 0 334 118" version="1.1" xmlns="http://www.w3.org/2000/svg" xmlns:xlink="http://www.w3.org/1999/xlink">
    <!-- Generator: Sketch 45.2 (43514) - http://www.bohemiancoding.com/sketch -->
    <title>image_2@2x</title>
    <desc>Created with Sketch.</desc>
    <defs>
        <rect id="path-1" x="0" y="0" width="328" height="112" rx="5"></rect>
        <filter x="-1.5%" y="-3.6%" width="103.0%" height="108.9%" filterUnits="objectBoundingBox" id="filter-2">
            <feOffset dx="0" dy="1" in="SourceAlpha" result="shadowOffsetOuter1"></feOffset>
            <feGaussianBlur stdDeviation="1.5" in="shadowOffsetOuter1" result="shadowBlurOuter1"></feGaussianBlur>
            <feComposite in="shadowBlurOuter1" in2="SourceAlpha" operator="out" result="shadowBlurOuter1"></feComposite>
            <feColorMatrix values="0 0 0 0 0.941176471   0 0 0 0 0.941176471   0 0 0 0 0.941176471  0 0 0 1 0" type="matrix" in="shadowBlurOuter1"></feColorMatrix>
        </filter>
    </defs>
    <g id="Page-1" stroke="none" stroke-width="1" fill="none" fill-rule="evenodd">
        <g id="Prime-Plus_01" transform="translate(-13.000000, -342.000000)">
            <g id="image_2" transform="translate(16.000000, 344.000000)">
                <g id="Rectangle-5" transform="translate(164.000000, 56.000000) scale(-1, 1) translate(-164.000000, -56.000000) ">
                    <use fill="black" fill-opacity="1" filter="url(#filter-2)" xlink:href="#path-1"></use>
                    <use fill="#FFFFFF" fill-rule="evenodd" xlink:href="#path-1"></use>
                    <rect stroke="#D8D8D8" stroke-width="1" x="0.5" y="0.5" width="327" height="111" rx="5"></rect>
                </g>
                <text id="10%-discount-on-Movi" font-family="Lato-Regular, Lato" font-size="18" font-weight="normal" line-spacing="21">
                    <tspan x="16" y="53" fill="#4A4A4A">10% discount </tspan>
                    <tspan x="16" y="74" fill="#9E9E9E">on Movies Tickets</tspan>
                </text>
                <g id="Group" transform="translate(261.000000, 32.000000)" fill-rule="nonzero" fill="#CC1C5D">
                    <path d="M33.408,16.7376 C33.2656,16.5973333 33.0757333,16.52 32.8741333,16.52 C32.672,16.52 32.4826667,16.5973333 32.3402667,16.7376 L15.8634667,32.9552 C15.7210667,33.0954667 15.6426667,33.2821333 15.6426667,33.4805333 C15.6426667,33.6794667 15.7210667,33.8661333 15.8634667,34.0058667 L25.9290667,43.9130667 C26.0714667,44.0533333 26.2613333,44.1306667 26.4629333,44.1306667 C26.6645333,44.1306667 26.8544,44.0533333 26.9968,43.9130667 L43.4736,27.6954667 C43.616,27.5552 43.6944,27.3685333 43.6944,27.1701333 C43.6944,26.9712 43.616,26.7845333 43.4736,26.6448 L33.408,16.7376 Z M26.4629333,42.9834667 L16.808,33.4810667 L32.8741333,17.6677333 L42.5285333,27.1706667 L26.4629333,42.9834667 Z" id="Shape"></path>
                    <path d="M32.8389333,26.36 C32.8458667,26.1642667 32.7397333,25.9818667 32.5642667,25.8890667 C32.3888,25.7962667 32.1754667,25.8096 32.0133333,25.9232 L29.5434667,27.6538667 L26.6949333,26.632 C26.5082667,26.5648 26.2986667,26.608 26.1546667,26.7434667 C26.0106667,26.8789333 25.9573333,27.0826667 26.0170667,27.2698667 L26.9258667,30.1168 L25.0586667,32.4677333 C24.936,32.6218667 24.9130667,32.8314667 24.9994667,33.008 C25.0858667,33.1845333 25.2666667,33.2976 25.4656,33.2992 L28.4976,33.328 L30.192,35.8026667 C30.2901333,35.9456 30.4533333,36.0293333 30.6250667,36.0293333 C30.6485333,36.0293333 30.672,36.0277333 30.6954667,36.0245333 C30.8928,35.9984 31.0576,35.864 31.1210667,35.6784 L32.0858667,32.8496 L35.0005333,32.0282667 C35.192,31.9744 35.3354667,31.8181333 35.3712,31.6256 C35.4069333,31.4330667 35.328,31.2368 35.168,31.1205333 L32.7328,29.3429333 L32.8389333,26.36 Z M33.6944,31.3253333 L31.5338667,31.9344 C31.3685333,31.9808 31.2368,32.1045333 31.1824,32.2650667 L30.4672,34.3621333 L29.2112,32.5274667 C29.1152,32.3872 28.9546667,32.3024 28.7829333,32.3008 L26.5354667,32.2794667 L27.92,30.5365333 C28.0261333,30.4032 28.0586667,30.2272 28.0069333,30.0656 L27.3333333,27.9552 L29.4453333,28.7125333 C29.6069333,28.7706667 29.7872,28.7466667 29.9274667,28.6485333 L31.7584,27.3658667 L31.6789333,29.5765333 C31.6730667,29.7456 31.752,29.9072 31.8901333,30.008 L33.6944,31.3253333 Z" id="Shape"></path>
                    <path d="M47.5994667,22.3744 C47.5994667,22.2378667 47.5445333,22.1072 47.4464,22.0106667 L45.8506667,20.44 C45.6464,20.2389333 45.3157333,20.2389333 45.1114667,20.44 C45.1088,20.4426667 45.1066667,20.4453333 45.104,20.448 C45.0090667,20.4682667 44.9189333,20.5141333 44.8453333,20.5866667 C44.6570667,20.7717333 44.4069333,20.8741333 44.1408,20.8741333 C43.8746667,20.8741333 43.6245333,20.7722667 43.4362667,20.5866667 C43.048,20.2042667 43.048,19.5818667 43.4362667,19.1994667 C43.4741333,19.1621333 43.5056,19.12 43.5290667,19.0757333 C43.5690667,19.0533333 43.6064,19.0261333 43.6405333,18.9925333 C43.8448,18.7914667 43.8448,18.4661333 43.6405333,18.2650667 L41.7989333,16.4528 C41.7093333,16.3648 41.5957333,16.3152 41.4789333,16.3045333 C41.2752,16.1637333 40.992,16.1824 40.8096,16.3616 C40.4213333,16.744 39.7888,16.744 39.4005333,16.3616 C39.2122667,16.1765333 39.1088,15.9301333 39.1088,15.6682667 C39.1088,15.4064 39.2122667,15.16 39.4005333,14.9749333 C39.4346667,14.9413333 39.4624,14.9045333 39.4848,14.8650667 C39.6698667,14.6629333 39.6645333,14.352 39.4666667,14.1573333 L37.9936,12.7072 C37.8074667,12.5237333 37.5098667,12.5066667 37.3018667,12.6661333 C37.2176,12.7306667 35.2133333,14.2250667 32.8714667,12.7578667 C32.8677333,12.7552 32.8634667,12.7536 32.8592,12.7509333 C32.8490667,12.7450667 32.8389333,12.7386667 32.8282667,12.7333333 C32.8224,12.7301333 32.816,12.7274667 32.8096,12.7248 C32.8005333,12.7205333 32.7909333,12.7162667 32.7818667,12.7125333 C32.7738667,12.7093333 32.7658667,12.7066667 32.7578667,12.704 C32.7498667,12.7013333 32.7424,12.6986667 32.7344,12.6965333 C32.7248,12.6938667 32.7152,12.6917333 32.7056,12.6896 C32.6992,12.688 32.6922667,12.6864 32.6858667,12.6853333 C32.6757333,12.6837333 32.6650667,12.6821333 32.6549333,12.6810667 C32.6485333,12.6805333 32.6421333,12.6794667 32.6357333,12.6789333 C32.6256,12.6778667 32.6154667,12.6778667 32.6053333,12.6773333 C32.5984,12.6773333 32.592,12.6768 32.5850667,12.6768 C32.5754667,12.6768 32.5664,12.6773333 32.5568,12.6784 C32.5493333,12.6789333 32.5418667,12.6794667 32.5344,12.68 C32.5258667,12.6810667 32.5178667,12.6821333 32.5093333,12.6837333 C32.5008,12.6848 32.4922667,12.6864 32.4842667,12.688 C32.4768,12.6896 32.4693333,12.6917333 32.4618667,12.6933333 C32.4528,12.6954667 32.4437333,12.6976 32.4352,12.7008 C32.4282667,12.7029333 32.4213333,12.7056 32.4144,12.7077333 C32.4053333,12.7109333 32.3968,12.7141333 32.3877333,12.7178667 C32.3808,12.7210667 32.3738667,12.7242667 32.3664,12.7274667 C32.3584,12.7312 32.3504,12.7349333 32.3424,12.7392 C32.3344,12.7434667 32.3269333,12.7482667 32.3189333,12.7525333 C32.3125333,12.7562667 32.3056,12.7605333 32.2992,12.7648 C32.2901333,12.7706667 32.2816,12.7770667 32.2730667,12.784 C32.2682667,12.7877333 32.2634667,12.7909333 32.2586667,12.7952 C32.2490667,12.8026667 32.2405333,12.8112 32.2314667,12.8192 C32.2282667,12.8224 32.2245333,12.8250667 32.2218667,12.8277333 L32.2170667,12.8325333 C32.2165333,12.8330667 32.216,12.8330667 32.216,12.8336 L30.4,14.6197333 L31.4458667,12.5365333 C31.4474667,12.5333333 31.4490667,12.5296 31.4506667,12.5264 L31.9034667,11.5728 C31.9168,11.5450667 31.9264,11.5168 31.9344,11.4885333 C32.088,11.2752 32.0554667,10.9781333 31.8506667,10.8026667 C31.8442667,10.7973333 31.1941333,10.2362667 30.6842667,9.37813333 C30.0341333,8.28373333 29.928,7.25813333 30.3690667,6.32906667 C30.4912,6.07146667 30.3781333,5.76533333 30.1168,5.64533333 L28.072,4.70506667 C27.8106667,4.58506667 27.4992,4.696 27.3770667,4.9536 C27.3754667,4.9568 27.3744,4.96053333 27.3728,4.96373333 C27.2906667,5.0144 27.2218667,5.088 27.1781333,5.1808 C26.9456,5.67093333 26.3509333,5.8832 25.8533333,5.65386667 C25.6122667,5.54293333 25.4293333,5.34613333 25.3386667,5.10026667 C25.248,4.85386667 25.2597333,4.58773333 25.3728,4.3504 C25.3957333,4.3024 25.4101333,4.25226667 25.4170667,4.20213333 C25.4469333,4.168 25.4725333,4.1296 25.4928,4.08693333 C25.6149333,3.82933333 25.5018667,3.5232 25.2405333,3.4032 L22.8810667,2.31786667 C22.7664,2.26506667 22.6421333,2.25706667 22.5285333,2.28586667 C22.288,2.22186667 22.0282667,2.3344 21.9189333,2.56426667 C21.8064,2.8016 21.6064,2.98133333 21.3562667,3.07093333 C21.1061333,3.16053333 20.8357333,3.14826667 20.5946667,3.03733333 C20.0970667,2.80853333 19.8810667,2.22346667 20.1136,1.73386667 C20.1338667,1.6912 20.1472,1.64693333 20.1546667,1.60213333 C20.2586667,1.34986667 20.1456,1.0592 19.8922667,0.942933333 L18.0048,0.0746666667 C17.7648,-0.0357333333 17.4784,0.048 17.3392,0.269866667 C17.3253333,0.291733333 15.9386667,2.43946667 13.2074667,1.84266667 C13.2032,1.8416 13.1984,1.84106667 13.1941333,1.84053333 C13.1824,1.8384 13.1701333,1.83626667 13.1584,1.83466667 C13.152,1.83413333 13.1461333,1.8336 13.1397333,1.83306667 C13.1290667,1.832 13.1178667,1.83093333 13.1072,1.83093333 C13.0992,1.83093333 13.0917333,1.83093333 13.0837333,1.83146667 C13.0746667,1.83146667 13.0656,1.83146667 13.0565333,1.83253333 C13.0474667,1.83306667 13.0384,1.83413333 13.0298667,1.8352 C13.0224,1.83626667 13.0144,1.8368 13.0069333,1.8384 C12.9973333,1.84 12.9882667,1.84213333 12.9786667,1.84426667 C12.9717333,1.84586667 12.9648,1.84746667 12.9578667,1.84906667 C12.9488,1.85173333 12.9397333,1.8544 12.9306667,1.85706667 C12.9237333,1.8592 12.9162667,1.86133333 12.9093333,1.864 C12.9013333,1.8672 12.8933333,1.8704 12.8853333,1.87413333 C12.8778667,1.87733333 12.8698667,1.88053333 12.8629333,1.88426667 C12.856,1.88746667 12.8490667,1.8912 12.8421333,1.89493333 C12.8341333,1.8992 12.8261333,1.90346667 12.8181333,1.90826667 C12.8122667,1.912 12.8064,1.91573333 12.8005333,1.92 C12.7925333,1.92533333 12.784,1.93066667 12.7765333,1.93706667 C12.7712,1.94133333 12.7658667,1.9456 12.7610667,1.94986667 C12.7530667,1.95626667 12.7456,1.96266667 12.7381333,1.96906667 C12.7328,1.97386667 12.728,1.9792 12.7226667,1.984 C12.7157333,1.9904 12.7093333,1.99733333 12.7029333,2.00426667 C12.6970667,2.01066667 12.6922667,2.01706667 12.6869333,2.02346667 C12.6816,2.02986667 12.6762667,2.03573333 12.6714667,2.04266667 C12.6656,2.05066667 12.6597333,2.05973333 12.6538667,2.06826667 C12.6501333,2.0736 12.6464,2.07893333 12.6432,2.0848 C12.6373333,2.09493333 12.6314667,2.1056 12.6261333,2.11626667 C12.624,2.12053333 12.6218667,2.12426667 12.6197333,2.128 L12.6186667,2.1328 C12.6186667,2.13333333 12.6181333,2.13386667 12.6181333,2.1344 L0.453333333,27.7562667 C0.4528,27.7568 0.4528,27.7573333 0.452266667,27.7584 L0.4496,27.7642667 C0.448,27.768 0.4464,27.7722667 0.4448,27.776 C0.44,27.7872 0.4352,27.7984 0.430933333,27.8096 C0.4288,27.8154667 0.4272,27.8213333 0.4256,27.8272 C0.4224,27.8373333 0.4192,27.8474667 0.416533333,27.8576 C0.4144,27.8650667 0.413333333,27.8725333 0.411733333,27.8805333 C0.410133333,27.8890667 0.408,27.8976 0.406933333,27.9061333 C0.405333333,27.9152 0.4048,27.9242667 0.403733333,27.9328 C0.4032,27.9402667 0.402133333,27.9477333 0.4016,27.9552 C0.401066667,27.9648 0.401066667,27.9744 0.401066667,27.984 C0.401066667,27.9909333 0.401066667,27.9978667 0.401066667,28.0048 C0.4016,28.0144 0.402666667,28.0234667 0.4032,28.0325333 C0.403733333,28.04 0.4048,28.0469333 0.405866667,28.0544 C0.406933333,28.0629333 0.409066667,28.0714667 0.410666667,28.08 C0.412266667,28.088 0.413866667,28.096 0.415466667,28.104 C0.417066667,28.1114667 0.419733333,28.1189333 0.421866667,28.1264 C0.424533333,28.1349333 0.4272,28.1434667 0.429866667,28.152 C0.432,28.1584 0.434666667,28.1648 0.437333333,28.1717333 C0.441066667,28.1808 0.4448,28.1898667 0.448533333,28.1984 C0.4512,28.2042667 0.4544,28.2101333 0.4576,28.2165333 C0.4624,28.2250667 0.466666667,28.2341333 0.472,28.2426667 C0.475733333,28.2490667 0.479466667,28.2549333 0.483733333,28.2608 C0.489066667,28.2688 0.493866667,28.2762667 0.4992,28.2837333 C0.504,28.2906667 0.509866667,28.2970667 0.5152,28.3034667 C0.520533333,28.3098667 0.525333333,28.3162667 0.530666667,28.3221333 C0.5376,28.3301333 0.545066667,28.3370667 0.552533333,28.3445333 C0.557333333,28.3488 0.5616,28.3536 0.5664,28.3578667 C0.574933333,28.3658667 0.584533333,28.3733333 0.594133333,28.3808 C0.597866667,28.3834667 0.601066667,28.3866667 0.604266667,28.3893333 C2.80426667,30.0554667 2.06133333,32.4197333 2.0288,32.5178667 C1.9456,32.7653333 2.06346667,33.0352 2.30346667,33.1456 L4.19093333,34.0138667 C4.2624,34.0469333 4.3376,34.0624 4.41173333,34.0624 C4.59893333,34.0624 4.77706667,33.9621333 4.8704,33.792 C4.90133333,33.7568 4.928,33.7178667 4.9488,33.6736 C5.18133333,33.1834667 5.77546667,32.9712 6.27306667,33.2 C6.77066667,33.4288 6.98666667,34.0138667 6.75413333,34.504 C6.6448,34.7338667 6.72373333,35.0021333 6.928,35.1429333 C6.97813333,35.2474667 7.06453333,35.336 7.17866667,35.3882667 L9.53813333,36.4736 C9.6096,36.5066667 9.6848,36.5221333 9.75893333,36.5221333 C9.90933333,36.5221333 10.0544,36.4576 10.1541333,36.344 C10.2048,36.2992 10.248,36.2437333 10.2784,36.1786667 C10.5109333,35.6885333 11.1562667,35.4997333 11.7168,35.7578667 C12.0213333,35.8981333 12.2512,36.1482667 12.3477333,36.4442667 C12.3509333,36.4549333 12.3552,36.4650667 12.3589333,36.4752 C12.1589333,37.2757333 11.7584,37.7962667 11.7258667,37.8373333 C11.5616,38.0421333 11.5792,38.3354667 11.7664,38.52 L13.2394667,39.9701333 C13.3413333,40.0704 13.4752,40.1210667 13.6090667,40.1210667 C13.7344,40.1210667 13.8592,40.0762667 13.9589333,39.9882667 C13.9989333,39.9658667 14.0362667,39.9386667 14.0704,39.9050667 C14.4592,39.5226667 15.0912,39.5226667 15.4794667,39.9050667 C15.6677333,40.0901333 15.7712,40.3365333 15.7712,40.5984 C15.7712,40.8602667 15.6677333,41.1066667 15.4794667,41.2917333 C15.2970667,41.4709333 15.2778667,41.7498667 15.4213333,41.9504 C15.4325333,42.0656 15.4826667,42.1776 15.5722667,42.2656 L17.4138667,44.0778667 C17.5157333,44.1781333 17.6496,44.2288 17.7834667,44.2288 C17.9173333,44.2288 18.0512,44.1786667 18.1530667,44.0778667 C18.1872,44.0442667 18.2149333,44.0074667 18.2373333,43.968 C18.2826667,43.9445333 18.3253333,43.9141333 18.3632,43.8768 C18.7514667,43.4944 19.384,43.4944 19.7722667,43.8768 C20.1605333,44.2592 20.1605333,44.8816 19.7722667,45.2634667 C19.6986667,45.336 19.6522667,45.4245333 19.6314667,45.5178667 C19.6288,45.5205333 19.6261333,45.5226667 19.6234667,45.5253333 C19.4192,45.7264 19.4192,46.0522667 19.6234667,46.2528 L21.2192,47.8234667 C21.3210667,47.9237333 21.4549333,47.9744 21.5888,47.9744 C21.7226667,47.9744 21.8565333,47.9242667 21.9584,47.8234667 C23.7354667,46.0741333 26.7002667,47.648 26.7370667,47.6682667 C26.9866667,47.8042667 27.2997333,47.7178667 27.4421333,47.4757333 C27.4805333,47.4538667 27.5168,47.4272 27.5498667,47.3952 L47.0693333,28.1829333 C47.0917333,28.1610667 47.1109333,28.1376 47.128,28.1130667 C47.3450667,27.9642667 47.4170667,27.6752 47.2869333,27.4421333 C47.2704,27.4128 45.6656,24.4896 47.4448,22.7381333 C47.544,22.6416 47.5994667,22.5109333 47.5994667,22.3744 Z M12.1605333,34.8261333 C11.2298667,34.3978667 10.1626667,34.6421333 9.57813333,35.3562667 L7.83786667,34.5557333 C8.05866667,33.6474667 7.60853333,32.6789333 6.71626667,32.2682667 C5.824,31.8576 4.78026667,32.1397333 4.21386667,32.8885333 L3.13066667,32.3904 C3.192,32.0597333 3.2464,31.5712 3.19573333,31.0064 C3.11733333,30.1264 2.76373333,28.8944 1.56693333,27.8405333 L13.3978667,2.9216 C13.6608,2.95946667 13.9130667,2.97706667 14.1541333,2.97706667 C15.368,2.97706667 16.296,2.54186667 16.9104,2.12053333 C17.3829333,1.79626667 17.7290667,1.4416 17.9472,1.18346667 L19.0304,1.6816 C18.8096,2.58986667 19.2597333,3.5584 20.152,3.96906667 C20.4309333,4.09706667 20.7242667,4.15786667 21.0133333,4.15786667 C21.6496,4.15786667 22.264,3.86293333 22.6533333,3.34826667 L24.3397333,4.12373333 C24.1914667,4.55413333 24.1957333,5.01706667 24.3557333,5.45013333 C24.5418667,5.95466667 24.9162667,6.35786667 25.4106667,6.58506667 C25.6896,6.71306667 25.9829333,6.77386667 26.272,6.77386667 C26.968,6.77386667 27.6373333,6.42133333 28.0149333,5.81386667 L29.2314667,6.37333333 C28.8778667,7.48266667 29.064,8.69013333 29.7813333,9.8976 C30.1562667,10.5285333 30.5946667,11.0208 30.8757333,11.3056 L30.5050667,12.0858667 L28.0944,16.8885333 L24.7184,20.2112 L28.3573333,12.3189333 C28.528,11.9488 28.3626667,11.5072 27.9882667,11.3349333 L15.0933333,5.4032 C14.7162667,5.22986667 14.2661333,5.39093333 14.0896,5.7616 L4.22453333,26.5402667 C4.048,26.9114667 4.21173333,27.3546667 4.5888,27.528 L13.2416,31.5082667 L11.8970667,32.832 C11.8970667,32.832 11.8965333,32.8325333 11.8965333,32.8325333 L11.8912,32.8378667 C11.888,32.8410667 11.8848,32.8448 11.8816,32.8485333 C11.8736,32.8570667 11.8656,32.8656 11.8581333,32.8741333 C11.8538667,32.8794667 11.8501333,32.8848 11.8458667,32.8896 C11.8394667,32.8976 11.8330667,32.9056 11.8277333,32.9141333 C11.8229333,32.9210667 11.8186667,32.928 11.8144,32.9349333 C11.8101333,32.9418667 11.8053333,32.9488 11.8016,32.9562667 C11.7968,32.9648 11.7930667,32.9733333 11.7888,32.9818667 C11.7856,32.9882667 11.7824,32.9946667 11.7797333,33.0010667 C11.776,33.0101333 11.7722667,33.0197333 11.7690667,33.0288 C11.7669333,33.0352 11.7642667,33.0410667 11.7626667,33.0474667 C11.7594667,33.0565333 11.7573333,33.0661333 11.7546667,33.0757333 C11.7530667,33.0826667 11.7509333,33.0890667 11.7498667,33.096 C11.7477333,33.1050667 11.7466667,33.1136 11.7450667,33.1226667 C11.744,33.1301333 11.7424,33.1381333 11.7418667,33.1456 C11.7408,33.1536 11.7402667,33.1616 11.7402667,33.1696 C11.7397333,33.1781333 11.7392,33.1866667 11.7392,33.1957333 C11.7392,33.2032 11.7392,33.2101333 11.7397333,33.2176 C11.7402667,33.2272 11.7402667,33.2362667 11.7413333,33.2458667 C11.7418667,33.2528 11.7429333,33.2597333 11.744,33.2666667 C11.7450667,33.2762667 11.7461333,33.2853333 11.7482667,33.2949333 C11.7498667,33.3024 11.7514667,33.3098667 11.7530667,33.3168 C11.7552,33.3253333 11.7568,33.3338667 11.7594667,33.3429333 C11.7621333,33.3514667 11.7648,33.36 11.768,33.3685333 C11.7706667,33.3754667 11.7728,33.3829333 11.7754667,33.3898667 C11.7797333,33.4 11.784,33.4101333 11.7888,33.4197333 C11.7914667,33.4250667 11.7936,33.4304 11.7962667,33.4357333 C11.8021333,33.4469333 11.8085333,33.4576 11.8149333,33.4682667 C11.8170667,33.4714667 11.8186667,33.4752 11.8208,33.4784 C12.1562667,33.9973333 12.3392,34.4992 12.4202667,34.9669333 C12.3365333,34.9146667 12.2506667,34.8672 12.1605333,34.8261333 Z M13.9402667,30.8208 C13.8896,30.7184 13.8048,30.6314667 13.6917333,30.5797333 L5.2944,26.7173333 L14.9136,6.45706667 L27.2885333,12.1493333 L22.6176,22.2805333 L13.9402667,30.8208 Z M26.8858667,46.5946667 C26.5178667,46.4314667 25.8986667,46.1941333 25.168,46.0624 C23.7706667,45.8106667 22.5536,46.0501333 21.6149333,46.7562667 L20.6661333,45.8224 C20.9541333,45.4677333 21.1114667,45.0309333 21.1114667,44.5701333 C21.1114667,44.0330667 20.8992,43.5285333 20.5136,43.1488 C20.128,42.7690667 19.6149333,42.56 19.0698667,42.56 C18.6016,42.56 18.1578667,42.7146667 17.7973333,42.9984 L16.4821333,41.704 C16.7008,41.3786667 16.8186667,40.9973333 16.8186667,40.5978667 C16.8186667,40.0608 16.6064,39.5562667 16.2208,39.1765333 C15.5242667,38.4912 14.4458667,38.4053333 13.6533333,38.9194667 L12.808,38.0874667 C12.9802667,37.7973333 13.2005333,37.3562667 13.3493333,36.808 C13.5802667,35.9546667 13.6757333,34.6773333 12.9157333,33.2848 L32.6762667,13.8352 C34.0912,14.5829333 35.3888,14.4896 36.2554667,14.2618667 C36.8122667,14.1157333 37.2602667,13.8986667 37.5552,13.7290667 L38.4005333,14.5610667 C38.1818667,14.8864 38.064,15.2677333 38.064,15.6672 C38.064,16.2042667 38.2762667,16.7088 38.6618667,17.088 C39.0474667,17.4677333 39.5605333,17.6768 40.1056,17.6768 C40.5114667,17.6768 40.8986667,17.5610667 41.2293333,17.3456 L42.5445333,18.64 C41.9056,19.4282667 41.9562667,20.5834667 42.6970667,21.3130667 C43.0826667,21.6928 43.5957333,21.9018667 44.1408,21.9018667 C44.6090667,21.9018667 45.0528,21.7472 45.4133333,21.4634667 L46.3621333,22.3973333 C45.6453333,23.3210667 45.4016,24.5189333 45.6576,25.8944 C45.7914667,26.6138667 46.0325333,27.2234667 46.1984,27.5856 L26.8858667,46.5946667 Z" id="Shape"></path>
                    <path d="M22.0992,18.7376 C22.0656,18.5445333 21.9237333,18.3866667 21.7333333,18.3306667 L18.8277333,17.4778667 L17.8944,14.6389333 C17.8330667,14.4528 17.6698667,14.3168 17.4730667,14.2885333 C17.2762667,14.2602667 17.08,14.344 16.9669333,14.5056 L15.2453333,16.9621333 L12.2133333,16.9578667 C12.2133333,16.9578667 12.2128,16.9578667 12.2128,16.9578667 C12.0138667,16.9578667 11.8325333,17.0688 11.7445333,17.2442667 C11.656,17.4197333 11.6768,17.6293333 11.7978667,17.7850667 L13.6394667,20.1557333 L12.6992,22.9930667 C12.6373333,23.1792 12.6885333,23.384 12.8309333,23.5205333 C12.9733333,23.6576 13.1824,23.7029333 13.3696,23.6378667 L16.2293333,22.6469333 L18.68,24.4037333 C18.7712,24.4693333 18.8789333,24.5024 18.9877333,24.5024 C19.0709333,24.5024 19.1541333,24.4832 19.2304,24.4437333 C19.4064,24.3525333 19.5152,24.1712 19.5104,23.9754667 L19.4368,20.992 L21.8917333,19.2410667 C22.0517333,19.1258667 22.1328,18.9306667 22.0992,18.7376 Z M18.6,20.3173333 C18.4608,20.4165333 18.3797333,20.5770667 18.384,20.7466667 L18.4389333,22.9584 L16.6224,21.656 C16.5317333,21.5909333 16.424,21.5573333 16.3146667,21.5573333 C16.2565333,21.5573333 16.1978667,21.5669333 16.1413333,21.5866667 L14.0213333,22.3216 L14.7184,20.2186667 C14.7717333,20.0576 14.7413333,19.8810667 14.6368,19.7466667 L13.272,17.9893333 L15.5194667,17.992 C15.5194667,17.992 15.52,17.992 15.52,17.992 C15.6917333,17.992 15.8528,17.9088 15.9504,17.7696 L17.2266667,15.9488 L17.9189333,18.0533333 C17.9717333,18.2144 18.1018667,18.3397333 18.2666667,18.3877333 L20.4202667,19.0197333 L18.6,20.3173333 Z" id="Shape"></path>
                </g>
            </g>
        </g>
    </g>
</svg>