<?xml version="1.0" encoding="UTF-8"?>
<svg width="334px" height="118px" viewBox="0 0 334 118" version="1.1" xmlns="http://www.w3.org/2000/svg" xmlns:xlink="http://www.w3.org/1999/xlink">
    <!-- Generator: Sketch 45.2 (43514) - http://www.bohemiancoding.com/sketch -->
    <title>Image_6@2x</title>
    <desc>Created with Sketch.</desc>
    <defs>
        <rect id="path-1" x="0" y="0" width="328" height="112" rx="5"></rect>
        <filter x="-1.5%" y="-3.6%" width="103.0%" height="108.9%" filterUnits="objectBoundingBox" id="filter-2">
            <feOffset dx="0" dy="1" in="SourceAlpha" result="shadowOffsetOuter1"></feOffset>
            <feGaussianBlur stdDeviation="1.5" in="shadowOffsetOuter1" result="shadowBlurOuter1"></feGaussianBlur>
            <feComposite in="shadowBlurOuter1" in2="SourceAlpha" operator="out" result="shadowBlurOuter1"></feComposite>
            <feColorMatrix values="0 0 0 0 0.941176471   0 0 0 0 0.941176471   0 0 0 0 0.941176471  0 0 0 1 0" type="matrix" in="shadowBlurOuter1"></feColorMatrix>
        </filter>
    </defs>
    <g id="Page-1" stroke="none" stroke-width="1" fill="none" fill-rule="evenodd">
        <g id="Prime-Plus_01" transform="translate(-13.000000, -855.000000)">
            <g id="Image_6" transform="translate(16.000000, 857.000000)">
                <g id="Rectangle-5" transform="translate(164.000000, 56.000000) scale(-1, 1) translate(-164.000000, -56.000000) ">
                    <use fill="black" fill-opacity="1" filter="url(#filter-2)" xlink:href="#path-1"></use>
                    <use fill="#FFFFFF" fill-rule="evenodd" xlink:href="#path-1"></use>
                    <rect stroke="#D8D8D8" stroke-width="1" x="0.5" y="0.5" width="327" height="111" rx="5"></rect>
                </g>
                <path d="M280.245877,76.07819 L282.955703,73.3686585 C283.243324,73.0810382 283.401736,72.6987243 283.401736,72.2919259 C283.401736,71.8851274 283.243324,71.5028135 282.955703,71.2151932 C282.361583,70.6213677 281.395769,70.6216627 280.802238,71.2154882 L280.214313,71.8034137 L279.627862,71.2140132 C279.035807,70.6216627 278.069697,70.6219577 277.475872,71.2151932 C277.188251,71.5028135 277.029839,71.8854224 277.029839,72.2919259 C277.029839,72.6984293 277.188251,73.0810382 277.475872,73.3683635 L280.184223,76.076715 L280.214313,76.0463305 L280.245877,76.07819 Z" id="Shape"></path>
                <path d="M280.502523,88.6301644 C281.441493,88.6301644 282.205236,87.8664217 282.205236,86.9274518 C282.205236,85.9884819 281.441493,85.2247392 280.502523,85.2247392 C279.563553,85.2247392 278.79981,85.9884819 278.79981,86.9274518 C278.79981,87.8664217 279.563553,88.6301644 280.502523,88.6301644 Z" id="Shape"></path>
                <path d="M277.508911,80.8918488 C277.508911,79.2145058 276.144263,77.8498577 274.46692,77.8498577 C272.789577,77.8498577 271.424929,79.2145058 271.424929,80.8918488 C271.424929,82.5691918 272.789577,83.9338399 274.46692,83.9338399 C276.144558,83.9338399 277.508911,82.5691918 277.508911,80.8918488 Z" id="Shape"></path>
                <path d="M280.523468,91.1246443 C278.695677,91.1246443 277.101818,92.4358982 276.734843,94.2064598 L284.312092,94.2064598 C283.945118,92.4358982 282.351258,91.1246443 280.523468,91.1246443 Z" id="Shape"></path>
                <g id="noun_1130125_cc-(1)" transform="translate(261.000000, 32.000000)" fill="#CC1C5D">
                    <path d="M8,0.8 L8,16.8 C8,17.2416 8.3584,17.6 8.8,17.6 L39.2,17.6 C39.6416,17.6 40,17.2416 40,16.8 L40,0.8 C40,0.3584 39.6416,0 39.2,0 L8.8,0 C8.3584,0 8,0.3584 8,0.8 Z M9.6,5.968 L14.696,1.6 L17.016,1.6 L9.6,7.8752 L9.6,5.968 Z M38.4,16 L9.6,16 L9.6,9.9712 L19.4928,1.6 L38.4,1.6 L38.4,16 Z M12.2376,1.6 L9.6,3.8608 L9.6,1.6 L12.2376,1.6 Z" id="Shape" fill-rule="nonzero"></path>
                    <path d="M11.02,40.78 C11.08,40.7936 11.14,40.8 11.2,40.8 C11.332,40.8 11.4616,40.7672 11.5792,40.704 L21.8016,35.2 L34.5472,35.2 L37.6,35.2 C38.0416,35.2 38.4,34.8416 38.4,34.4 L38.4,31.3472 L38.4,23.0528 L38.4,20 C38.4,19.5584 38.0416,19.2 37.6,19.2 L34.5472,19.2 L13.4528,19.2 L10.4,19.2 C9.9584,19.2 9.6,19.5584 9.6,20 L9.6,23.0528 L9.6,25.6 L7.2,25.6 C7.076,25.6 6.9528,25.6288 6.8424,25.684 L0.6112,28.8 L0,28.8 L0,30.4 L0.8,30.4 C0.924,30.4 1.0472,30.3712 1.1576,30.316 L7.3888,27.2 L10.4,27.2 L13.648,27.2 C14.0976,27.2 14.5,27.4136 14.752,27.7856 C15.004,28.1584 15.0528,28.6112 14.8864,29.0288 C14.7184,29.4488 14.3528,29.7528 13.9088,29.8416 L11.0768,30.408 C10.7672,30.4232 10.4512,30.4784 10.1312,30.5928 C10.1264,30.5944 10.1232,30.5984 10.1184,30.6 L7.0424,31.2152 L7.3568,32.784 L9.6,32.336 L9.6,34.4 C9.6,34.8416 9.9584,35.2 10.4,35.2 L13.4528,35.2 L18.4264,35.2 L11.0856,39.1528 L0.98,36.82 C0.9208,36.8072 0.8608,36.8 0.8,36.8 L0,36.8 L0,38.4 L0.7088,38.4 L11.02,40.78 Z M36.8,33.6 L35.2,33.6 C35.2,32.7176 35.9176,32 36.8,32 L36.8,33.6 Z M36.8,20.8 L36.8,22.4 C35.9176,22.4 35.2,21.6824 35.2,20.8 L36.8,20.8 Z M11.2,20.8 L12.8,20.8 C12.8,21.6824 12.0824,22.4 11.2,22.4 L11.2,20.8 Z M11.2,33.6 L11.2,32.016 L11.2528,32.0056 C12.1104,32.0344 12.8,32.736 12.8,33.6 L11.2,33.6 Z M14.4,33.6 C14.4,32.8136 14.1104,32.0888 13.6352,31.5288 L14.2232,31.4112 C14.4672,31.3624 14.7,31.284 14.9184,31.18 C15.5736,30.8664 16.0944,30.3176 16.372,29.6248 C16.4376,29.4608 16.4696,29.2912 16.5048,29.1216 C16.6624,28.3544 16.5256,27.552 16.0776,26.8904 C15.5312,26.0824 14.6232,25.6 13.648,25.6 L11.2,25.6 L11.2,24 C12.9648,24 14.4,22.5648 14.4,20.8 L33.6,20.8 C33.6,22.5648 35.0352,24 36.8,24 L36.8,30.404 C35.0472,30.384 33.6,31.8328 33.6,33.6 L21.6,33.6 L14.4,33.6 Z" id="Shape" fill-rule="nonzero"></path>
                    <path d="M46.756,35.3344 L44.5576,36.8 L36.8,36.8 C35.7704,36.8 34.8048,37.2568 34.152,38.0528 C33.6552,38.6584 33.3904,39.4024 33.3792,40.168 L27.432,37.0792 C27.3848,37.0544 27.3344,37.0344 27.2832,37.02 C26.6624,36.8416 26.0016,36.9032 25.4224,37.1928 C24.5456,37.6336 24,38.516 24,39.4976 L24,39.7024 C24,40.684 24.5456,41.5672 25.424,42.0064 L37.2424,47.9152 C37.3536,47.9712 37.4768,48 37.6,48 C37.644,48 37.688,47.9968 37.732,47.9888 L47.2664,46.4 L48,46.4 L48,44.8 L47.2,44.8 C47.156,44.8 47.112,44.8032 47.068,44.8112 L37.7248,46.368 L26.14,40.576 C25.8064,40.4088 25.6,40.0744 25.6,39.7024 L25.6,39.4976 C25.6,39.1256 25.8072,38.7912 26.14,38.6248 C26.3392,38.5256 26.5632,38.4976 26.7776,38.5424 L34.0312,42.3096 C34.1152,42.3536 34.2064,42.3816 34.3008,42.3936 L40.4288,43.16 L41.0344,43.7656 L42.1656,42.6344 L41.3656,41.8344 C41.24,41.7088 41.076,41.628 40.8992,41.6064 L35.0712,40.8776 L35.012,40.5808 C34.9048,40.0432 35.0424,39.4912 35.3896,39.0672 C35.7376,38.6432 36.2512,38.4 36.8,38.4 L44.8,38.4 C44.9576,38.4 45.1128,38.3528 45.244,38.2656 L47.4424,36.8 L48,36.8 L48,35.2 L47.2,35.2 C47.0424,35.2 46.8872,35.2472 46.756,35.3344 Z" id="Shape" fill-rule="nonzero"></path>
                    <path d="M23.2,11.2 L36,11.2 C36.4416,11.2 36.8,10.8416 36.8,10.4 L36.8,7.2 C36.8,6.7584 36.4416,6.4 36,6.4 L23.2,6.4 C22.7584,6.4 22.4,6.7584 22.4,7.2 L22.4,10.4 C22.4,10.8416 22.7584,11.2 23.2,11.2 Z M24,8 L35.2,8 L35.2,9.6 L24,9.6 L24,8 Z" id="Shape" fill-rule="nonzero"></path>
                    <rect id="Rectangle-path" fill-rule="nonzero" x="28" y="3.2" width="8.8" height="1.6"></rect>
                    <rect id="Rectangle-path" fill-rule="nonzero" x="11.2" y="9.6" width="8.8" height="1.6"></rect>
                    <rect id="Rectangle-path" fill-rule="nonzero" x="11.2" y="12.8" width="1.6" height="1.6"></rect>
                    <rect id="Rectangle-path" fill-rule="nonzero" x="14.4" y="12.8" width="1.6" height="1.6"></rect>
                    <rect id="Rectangle-path" fill-rule="nonzero" x="17.6" y="12.8" width="1.6" height="1.6"></rect>
                    <rect id="Rectangle-path" fill-rule="nonzero" x="23.2" y="12.8" width="1.6" height="1.6"></rect>
                    <rect id="Rectangle-path" fill-rule="nonzero" x="26.4" y="12.8" width="1.6" height="1.6"></rect>
                    <rect id="Rectangle-path" fill-rule="nonzero" x="34.4" y="12.8" width="1.6" height="1.6"></rect>
                    <rect id="Rectangle-path" fill-rule="nonzero" x="31.2" y="12.8" width="1.6" height="1.6"></rect>
                    <rect id="Rectangle-path" fill-rule="nonzero" x="41.6" y="8" width="1.6" height="1.6"></rect>
                    <rect id="Rectangle-path" fill-rule="nonzero" x="44.8" y="8" width="1.6" height="1.6"></rect>
                    <rect id="Rectangle-path" fill-rule="nonzero" x="44.8" y="11.2" width="1.6" height="1.6"></rect>
                    <rect id="Rectangle-path" fill-rule="nonzero" x="44.8" y="14.4" width="1.6" height="1.6"></rect>
                    <rect id="Rectangle-path" fill-rule="nonzero" x="44.8" y="17.6" width="1.6" height="1.6"></rect>
                    <rect id="Rectangle-path" fill-rule="nonzero" x="44.8" y="20.8" width="1.6" height="1.6"></rect>
                    <rect id="Rectangle-path" fill-rule="nonzero" x="44.8" y="24" width="1.6" height="1.6"></rect>
                    <rect id="Rectangle-path" fill-rule="nonzero" x="44.8" y="27.2" width="1.6" height="1.6"></rect>
                    <rect id="Rectangle-path" fill-rule="nonzero" x="41.6" y="27.2" width="1.6" height="1.6"></rect>
                    <rect id="Rectangle-path" fill-rule="nonzero" x="4.8" y="8" width="1.6" height="1.6"></rect>
                    <rect id="Rectangle-path" fill-rule="nonzero" x="1.6" y="8" width="1.6" height="1.6"></rect>
                    <rect id="Rectangle-path" fill-rule="nonzero" x="1.6" y="11.2" width="1.6" height="1.6"></rect>
                    <rect id="Rectangle-path" fill-rule="nonzero" x="1.6" y="14.4" width="1.6" height="1.6"></rect>
                    <rect id="Rectangle-path" fill-rule="nonzero" x="1.6" y="17.6" width="1.6" height="1.6"></rect>
                    <rect id="Rectangle-path" fill-rule="nonzero" x="1.6" y="20.8" width="1.6" height="1.6"></rect>
                    <rect id="Rectangle-path" fill-rule="nonzero" x="1.6" y="24" width="1.6" height="1.6"></rect>
                    <path d="M20.0287743,22.4 L20,22.4126927 L20,23.7123754 L21.3759575,23.7123754 C22.630258,23.7123754 23.2621976,24.2862295 23.4895939,24.9993654 L20.0287743,24.9993654 L20.0287743,26.2990481 L23.4895939,26.2990481 C23.2615869,27.0114042 22.628991,27.5860382 21.3759575,27.5860382 L20,27.5860382 L20,28.8857209 L20.3531451,28.8857209 L24.4914793,32.8 L25.4253519,31.8683913 L22.1894976,28.8070303 C23.6591001,28.5194105 24.6035896,27.4638238 24.8629357,26.2990481 L26.6966739,26.2990481 L26.6966739,24.9993654 L24.8629357,24.9993654 C24.759231,24.5318696 24.5365131,24.0894576 24.222044,23.6996827 L26.6966739,23.6996827 L26.6966739,22.4 L20.0287743,22.4 Z" id="Path"></path>
                </g>
                <text id="20-Free-Cash-Transac" font-family="Lato-Regular, Lato" font-size="18" font-weight="normal" line-spacing="21">
                    <tspan x="15" y="53" fill="#4A4A4A">20 Free Cash Transactions </tspan>
                    <tspan x="228.552" y="53" fill="#9E9E9E"></tspan>
                    <tspan x="15" y="74" fill="#9E9E9E">at Axis branches</tspan>
                </text>
            </g>
        </g>
    </g>
</svg>