<?xml version="1.0" encoding="UTF-8"?>
<svg width="334px" height="118px" viewBox="0 0 334 118" version="1.1" xmlns="http://www.w3.org/2000/svg" xmlns:xlink="http://www.w3.org/1999/xlink">
    <!-- Generator: Sketch 45.2 (43514) - http://www.bohemiancoding.com/sketch -->
    <title>image_3@2x</title>
    <desc>Created with Sketch.</desc>
    <defs>
        <rect id="path-1" x="0" y="0" width="328" height="112" rx="5"></rect>
        <filter x="-1.5%" y="-3.6%" width="103.0%" height="108.9%" filterUnits="objectBoundingBox" id="filter-2">
            <feOffset dx="0" dy="1" in="SourceAlpha" result="shadowOffsetOuter1"></feOffset>
            <feGaussianBlur stdDeviation="1.5" in="shadowOffsetOuter1" result="shadowBlurOuter1"></feGaussianBlur>
            <feComposite in="shadowBlurOuter1" in2="SourceAlpha" operator="out" result="shadowBlurOuter1"></feComposite>
            <feColorMatrix values="0 0 0 0 0.941176471   0 0 0 0 0.941176471   0 0 0 0 0.941176471  0 0 0 1 0" type="matrix" in="shadowBlurOuter1"></feColorMatrix>
        </filter>
    </defs>
    <g id="Page-1" stroke="none" stroke-width="1" fill="none" fill-rule="evenodd">
        <g id="Prime-Plus_01" transform="translate(-13.000000, -470.000000)">
            <g id="image_3" transform="translate(16.000000, 472.000000)">
                <g id="Rectangle-5">
                    <use fill="black" fill-opacity="1" filter="url(#filter-2)" xlink:href="#path-1"></use>
                    <use fill="#FFFFFF" fill-rule="evenodd" xlink:href="#path-1"></use>
                    <rect stroke="#D8D8D8" stroke-width="1" x="0.5" y="0.5" width="327" height="111" rx="5"></rect>
                </g>
                <text id="Zero-cost-Accidental" font-family="Lato-Regular, Lato" font-size="18" font-weight="normal" line-spacing="21">
                    <tspan x="237.324" y="53" fill="#4A4A4A">Zero cost  </tspan>
                    <tspan x="147" y="74" fill="#9E9E9E">Accidental Insurance</tspan>
                </text>
                <g id="Group" transform="translate(17.000000, 36.000000)" stroke="#CC1C5D" fill-rule="nonzero">
                    <g transform="translate(5.052632, 0.000000)" id="Shape">
                        <path d="M22.1974737,40.4469474 C21.2734737,40.4469474 20.6709474,39.8153684 20.6608421,38.8376842 C20.6538947,38.0722105 20.6551579,37.308 20.6557895,36.5444211 L20.6557895,35.5806316 L19.1772632,35.5806316 C18.6012632,35.5806316 18.0265263,35.5806316 17.4505263,35.5793684 C16.3863158,35.5755789 15.7736842,34.9667368 15.7698947,33.9082105 C15.7673684,33.1370526 15.7673684,32.3671579 15.768,31.5972632 L15.7686316,30.6808421 L14.2825263,30.6846316 C13.6945263,30.6846316 13.1109474,30.6814737 12.5267368,30.6682105 C12.1837895,30.66 11.7037895,30.5469474 11.3816842,30.2526316 C11.0463158,29.9482105 10.9149474,29.4549474 10.9061053,29.1271579 C10.8821053,28.3130526 10.8852632,27.4894737 10.8884211,26.6924211 C10.8903158,26.3791579 10.8909474,26.0848421 10.8909474,25.7911579 L9.31263158,25.7911579 C8.74736842,25.7911579 8.18336842,25.7905263 7.61936842,25.788 C6.61768421,25.7829474 6.01515789,25.1835789 6.00757895,24.1869474 C6.00252632,23.4214737 6.00315789,22.656 6.00442105,21.8911579 L6.00442105,20.9021053 L5.052,20.9002105 C4.284,20.9002105 3.51473684,20.8995789 2.74610526,20.8951579 C2.25284211,20.8932632 1.83978947,20.7385263 1.55368421,20.4492632 C1.284,20.1757895 1.14252632,19.8037895 1.14568421,19.3705263 C1.15073684,18.4654737 1.76336842,17.9008421 2.74231579,17.8964211 C4.28336842,17.8894737 5.82378947,17.8869474 7.36484211,17.8913684 C8.43789474,17.8945263 9.00884211,18.4648421 9.01326316,19.5385263 C9.01642105,20.2938947 9.01642105,21.048 9.01578947,21.8033684 L9.01515789,22.7823158 L11.3892632,22.7785263 C11.6993684,22.7785263 12.0088421,22.7797895 12.3195789,22.7804211 C13.308,22.7848421 13.8997895,23.3753684 13.9042105,24.3612632 C13.908,25.2429474 13.9073684,26.1246316 13.9067368,27.0227368 L13.9067368,27.66 L17.1069474,27.6574737 C18.2387368,27.66 18.7901053,28.2145263 18.7926316,29.352 C18.7945263,30.0953684 18.7945263,30.8387368 18.7938947,31.5814737 L18.7938947,32.5578947 L20.856,32.556 C21.2696842,32.556 21.684,32.5566316 22.0983158,32.5597895 C23.0974737,32.5673684 23.7195789,33.1970526 23.7214737,34.2037895 C23.7246316,35.7435789 23.724,37.2846316 23.7233684,38.8231579 C23.7214737,39.7945263 23.1372632,40.4317895 22.2341053,40.4475789 L22.1974737,40.4475789 L22.1974737,40.4469474 Z M16.1128421,30.3366316 L16.1122105,31.5972632 C16.1115789,32.3671579 16.1115789,33.1370526 16.1134737,33.9069474 C16.1166316,34.7734737 16.5795789,35.2326316 17.4517895,35.2357895 C18.0265263,35.2370526 18.6025263,35.2383158 19.1772632,35.2383158 L20.9993684,35.2383158 L20.9993684,36.5444211 C20.9987368,37.3061053 20.9981053,38.0703158 21.0044211,38.8338947 C21.0126316,39.6290526 21.4572632,40.1033684 22.1962105,40.104 L22.2284211,40.1033684 C22.9471579,40.0901053 23.3772632,39.6113684 23.3785263,38.8218947 C23.3797895,37.2833684 23.3804211,35.7429474 23.3772632,34.2037895 C23.3753684,33.3821053 22.9086316,32.9077895 22.0951579,32.9027368 C21.6827368,32.8995789 21.2684211,32.8976842 20.8553684,32.8976842 L18.4503158,32.8995789 L18.4503158,31.5802105 C18.4503158,30.8374737 18.4503158,30.0941053 18.4484211,29.3513684 C18.4458947,28.4065263 18.0448421,28.0016842 17.1063158,27.9997895 L13.8492632,28.0023158 C13.8088421,28.0023158 13.7690526,28.0016842 13.728,27.9997895 L13.5625263,27.9947368 L13.5625263,27.0202105 C13.5631579,26.1233684 13.5637895,25.2423158 13.56,24.3618947 C13.5568421,23.5661053 13.116,23.1265263 12.3189474,23.124 C12.0082105,23.1221053 11.6993684,23.1221053 11.3892632,23.1221053 L8.67157895,23.1246316 L8.67221053,21.8021053 C8.67284211,21.0467368 8.67284211,20.2926316 8.66968421,19.5391579 C8.66652632,18.6511579 8.25094737,18.2362105 7.36357895,18.2343158 C5.82378947,18.2286316 4.284,18.2311579 2.74484211,18.2393684 C1.95157895,18.2425263 1.49431579,18.6555789 1.48989474,19.3711579 C1.48736842,19.7115789 1.59410526,20.0002105 1.79747368,20.2054737 C2.01915789,20.4290526 2.34757895,20.5484211 2.74736842,20.5509474 C3.51536842,20.5541053 4.28336842,20.5553684 5.05136842,20.556 L6.34863158,20.5566316 L6.348,21.8898947 C6.34736842,22.6547368 6.34673684,23.4195789 6.35115789,24.1837895 C6.35810526,24.9909474 6.80842105,25.4387368 7.62126316,25.4418947 C8.18526316,25.4456842 8.74863158,25.4456842 9.31263158,25.4456842 L11.2345263,25.4456842 L11.2345263,25.7715789 C11.2345263,26.0734737 11.2338947,26.3722105 11.232,26.6741053 C11.2288421,27.4869474 11.2250526,28.308 11.2490526,29.1157895 C11.2566316,29.3892632 11.3741053,29.7808421 11.6128421,29.9974737 C11.8648421,30.228 12.2545263,30.3164211 12.5349474,30.3233684 C13.1153684,30.3366316 13.6970526,30.3404211 14.2825263,30.3404211 L16.1128421,30.3366316 Z M22.3686316,39.9322105 L22.0244211,39.9322105 L22.3686316,39.9296842 L22.3686316,39.9322105 Z"></path>
                        <path d="M30.4111579,33.1932632 C29.4745263,33.1932632 28.7709474,32.6058947 28.5757895,31.6616842 C28.5625263,31.5991579 27.2058947,25.3976842 20.9084211,24.8917895 C20.8812632,24.8898947 20.8465263,24.8898947 20.8086316,24.8898947 L20.6677895,24.8898947 C17.0816842,24.8898947 15.1048421,19.2505263 14.4549474,17.3981053 C14.3172632,17.0052632 14.1277895,16.6212632 13.9452632,16.2486316 C13.8631579,16.0818947 13.7804211,15.9138947 13.7027368,15.7452632 L13.5145263,15.7604211 C13.1014737,15.7938947 12.6770526,15.8273684 12.2456842,15.8330526 C11.8421053,15.8362105 11.4385263,15.8444211 11.0343158,15.8526316 C10.4747368,15.8652632 9.91578947,15.8772632 9.35684211,15.8772632 C8.60147368,15.8772632 7.97557895,15.8564211 7.38568421,15.8096842 C5.45368421,15.6581053 2.23073684,14.3785263 1.60421053,14.124 C0.735157895,13.788 0.236210526,13.1355789 0.284842105,12.4136842 C0.346736842,11.4991579 1.09263158,10.6837895 1.94905263,10.596 C2.38863158,10.5517895 2.89452632,10.6458947 3.34357895,10.8517895 C5.28947368,11.7454737 7.45073684,12.1793684 9.95115789,12.1793684 C11.2307368,12.1793684 15.5330526,11.9816842 18.3227368,9.43073684 C18.6530526,9.12884211 18.972,8.80042105 19.2802105,8.48210526 C19.4286316,8.32863158 19.5783158,8.17578947 19.728,8.02421053 C20.0317895,7.71915789 20.1846316,7.30042105 20.2212632,6.66631579 C20.2793684,5.65452632 20.1006316,4.66926316 19.9105263,3.62652632 C19.8644211,3.37389474 19.8183158,3.12 19.776,2.86610526 C19.7065263,2.44736842 19.6313684,1.82652632 19.7949474,1.27389474 C20.0185263,0.518526316 20.7486316,0.0113684211 21.6113684,0.0113684211 C21.7882105,0.0113684211 21.9650526,0.0334736842 22.1336842,0.0783157895 C22.7741053,0.244421053 23.1896842,0.711157895 23.3077895,1.392 L23.4543158,2.24273684 C23.6633684,3.43136842 23.8749474,4.63957895 24.0233684,5.84147368 C24.2614737,7.76147368 23.6823158,9.432 22.3010526,10.8056842 C21.4086316,11.6930526 20.4347368,12.6442105 19.3225263,13.7128421 C19.3168421,13.7185263 19.3086316,13.7261053 19.3010526,13.7336842 C19.7943158,14.8212632 20.2869474,15.9094737 20.7814737,17.0077895 L21.0555789,17.6153684 L22.7368421,16.3332632 C24.8418947,14.7277895 27.2633684,13.9073684 29.9343158,13.8922105 L30.2425263,13.8915789 C31.3907368,13.8915789 32.5534737,13.9275789 33.6783158,13.9616842 L33.7654737,13.9642105 C34.1943158,13.9774737 34.6231579,13.9907368 35.052,14.0021053 C36.5008421,14.0387368 37.2404211,15.1850526 37.2233684,16.3004211 C37.2018947,17.6033684 36.2684211,18.5134737 34.9541053,18.5134737 C34.9149474,18.5052632 34.8713684,18.5134737 34.8290526,18.5122105 C34.7848421,18.5103158 34.668,18.4901053 34.4930526,18.4604211 C33.8886316,18.3574737 32.6286316,18.1408421 31.1191579,18.1408421 C28.0237895,18.1408421 25.7677895,19.0332632 24.4136842,20.7953684 C24.3473684,20.8825263 24.2791579,20.9886316 24.2311579,21.0732632 C31.0484211,23.232 32.5768421,30.264 32.64,30.5652632 C32.8124211,31.4021053 32.5136842,31.9901053 32.2313684,32.3362105 C31.8012632,32.8642105 31.1033684,33.1932632 30.4111579,33.1932632 Z M20.8086316,24.5456842 C20.8578947,24.5456842 20.9008421,24.5475789 20.9362105,24.5501053 C27.4869474,25.0749474 28.8978947,31.5271579 28.9117895,31.5915789 C29.0747368,32.3785263 29.6355789,32.8477895 30.4111579,32.8477895 C31.0029474,32.8477895 31.5985263,32.5686316 31.9648421,32.1183158 C32.1991579,31.8296842 32.4492632,31.3389474 32.3033684,30.6341053 C32.2414737,30.3378947 30.7282105,23.3753684 23.9475789,21.3435789 L23.8616842,21.3183158 L23.8307368,21.2298947 C23.7776842,21.0631579 24.1042105,20.6324211 24.1414737,20.5844211 C25.5637895,18.7338947 27.9113684,17.7953684 31.1191579,17.7953684 C32.6576842,17.7953684 33.9846316,18.0233684 34.5517895,18.1218947 C34.704,18.1477895 34.8037895,18.1661053 34.8435789,18.1673684 C34.8814737,18.168 34.9174737,18.1698947 34.9534737,18.1698947 C36.0877895,18.1698947 36.8614737,17.4164211 36.8804211,16.2934737 C36.8949474,15.348 36.2690526,14.3753684 35.0437895,14.3437895 C34.6143158,14.3330526 34.1854737,14.3204211 33.756,14.3071579 L33.6688421,14.304 C32.5471579,14.2705263 31.3863158,14.2338947 30.2431579,14.2338947 L29.9368421,14.2351579 C27.3423158,14.2490526 24.9909474,15.0467368 22.9458947,16.6048421 L20.9210526,18.1484211 L20.4694737,17.1473684 C19.9623158,16.0225263 19.4589474,14.9058947 18.9517895,13.7911579 L18.9113684,13.7014737 L18.9593684,13.5997895 C18.9858947,13.5625263 19.0541053,13.4943158 19.0863158,13.4633684 C20.1966316,12.3966316 21.1692632,11.4467368 22.0597895,10.5606316 C23.3621053,9.26526316 23.9084211,7.69136842 23.6835789,5.88252632 C23.5357895,4.68884211 23.3254737,3.48505263 23.1208421,2.32042105 L22.9698947,1.44947368 C22.8770526,0.909473684 22.5486316,0.54 22.0477895,0.409894737 C21.9063158,0.372631579 21.7597895,0.354315789 21.612,0.354315789 C20.9033684,0.354315789 20.3052632,0.762947368 20.1252632,1.37052632 C19.9812632,1.85494737 20.0507368,2.42336842 20.1151579,2.80863158 C20.1574737,3.06063158 20.2035789,3.312 20.2490526,3.56463158 C20.4423158,4.62821053 20.6254737,5.63242105 20.5642105,6.68526316 C20.5225263,7.40905263 20.34,7.89663158 19.9717895,8.26547368 C19.8221053,8.41515789 19.6743158,8.568 19.5271579,8.72021053 C19.2157895,9.04168421 18.8930526,9.37389474 18.5557895,9.68336842 C15.6745263,12.3164211 11.2623158,12.5216842 9.97957895,12.5216842 C7.40084211,12.5216842 5.19221053,12.0770526 3.20147368,11.1631579 C2.80673684,10.9818947 2.36526316,10.8985263 1.98505263,10.9370526 C1.28778947,11.0084211 0.680210526,11.6804211 0.629052632,12.4357895 C0.590526316,13.0016842 1.00484211,13.5227368 1.71031579,13.7949474 C2.35263158,14.0570526 5.532,15.3189474 7.41347368,15.4661053 C7.99452632,15.5122105 8.61157895,15.5324211 9.35810526,15.5324211 C9.91452632,15.5324211 10.4715789,15.5204211 11.028,15.5090526 C11.4334737,15.5008421 11.8395789,15.4926316 12.2437895,15.4875789 C12.6631579,15.4844211 13.0818947,15.4496842 13.4867368,15.4168421 L13.9168421,15.3827368 L13.9667368,15.4926316 C14.0583158,15.6966316 14.1562105,15.8968421 14.2547368,16.0970526 C14.4416842,16.4785263 14.6355789,16.8732632 14.7795789,17.2844211 C16.4696842,22.1027368 18.4515789,24.5469474 20.6690526,24.5469474 L20.8086316,24.5456842 Z"></path>
                    </g>
                    <path d="M44.3861053,19.2536842 C44.3614737,19.2536842 44.3368421,19.2486316 44.3128421,19.2372632 C44.2269474,19.1974737 44.1909474,19.0938947 44.2313684,19.0092632 C46.1425263,14.9690526 43.0730526,12.0334737 42.9416842,11.9103158 C42.8722105,11.8458947 42.8684211,11.7366316 42.9334737,11.6677895 C42.9985263,11.5983158 43.1058947,11.5945263 43.1753684,11.6589474 C43.2094737,11.6911579 46.5618947,14.8850526 44.5414737,19.1557895 C44.5124211,19.2176842 44.4505263,19.2536842 44.3861053,19.2536842 Z" id="Shape"></path>
                    <path d="M47.4391579,17.5231579 C47.4183158,17.5231579 47.3968421,17.5193684 47.3753684,17.5105263 C47.2863158,17.4745263 47.244,17.3747368 47.28,17.2869474 C48.5690526,14.0621053 46.0471579,11.9298947 45.9385263,11.8402105 C45.8658947,11.7795789 45.8557895,11.6715789 45.9157895,11.5983158 C45.9764211,11.5256842 46.0850526,11.5143158 46.1576842,11.5749474 C46.1861053,11.5983158 48.9827368,13.9522105 47.5989474,17.4151579 C47.5711579,17.4814737 47.5073684,17.5231579 47.4391579,17.5231579 Z" id="Shape"></path>
                    <path d="M3.10105263,14.4176842 C3.02463158,14.4176842 2.95452632,14.3652632 2.93494737,14.2875789 C2.92421053,14.2427368 1.83663158,9.74084211 5.84778947,7.24547368 C5.92736842,7.19621053 6.03410526,7.22021053 6.084,7.30105263 C6.13389474,7.38126316 6.10989474,7.48736842 6.02905263,7.53789474 C2.22821053,9.90189474 3.25705263,14.1606316 3.26842105,14.2029474 C3.29178947,14.2951579 3.23557895,14.388 3.14336842,14.4126316 C3.12947368,14.4157895 3.11494737,14.4176842 3.10105263,14.4176842 Z" id="Shape"></path>
                    <path d="M0.545684211,12.8627368 C0.473052632,12.8627368 0.406105263,12.8166316 0.382736842,12.7433684 C0.372,12.708 -0.703578947,9.21473684 2.33494737,7.05410526 C2.41326316,6.99852632 2.51936842,7.01747368 2.57431579,7.09452632 C2.62926316,7.17157895 2.61094737,7.27894737 2.53389474,7.33389474 C-0.296842105,9.34736842 0.667578947,12.5052632 0.709894737,12.6385263 C0.738947368,12.7288421 0.689052632,12.8254737 0.598105263,12.8545263 C0.581052632,12.8602105 0.563368421,12.8627368 0.545684211,12.8627368 Z" id="Shape"></path>
                    <path d="M17.8452632,10.9578947 C15.5703158,10.9578947 13.7197895,9.10736842 13.7197895,6.83242105 C13.7197895,4.55747368 15.5703158,2.70631579 17.8452632,2.70631579 C20.1208421,2.70631579 21.9713684,4.55747368 21.9713684,6.83242105 C21.972,9.10673684 20.1208421,10.9578947 17.8452632,10.9578947 Z M17.8452632,3.18 C15.8317895,3.18 14.1934737,4.81831579 14.1934737,6.83242105 C14.1934737,8.84589474 15.8317895,10.4842105 17.8452632,10.4842105 C19.8593684,10.4842105 21.4976842,8.84589474 21.4976842,6.83242105 C21.4983158,4.81831579 19.8593684,3.18 17.8452632,3.18 Z" id="Shape"></path>
                </g>
            </g>
        </g>
    </g>
</svg>